<mxfile host="app.diagrams.net" agent="Mozilla/5.0 (Windows NT 10.0; Win64; x64) AppleWebKit/537.36 (KHTML, like Gecko) Chrome/137.0.0.0 Safari/537.36 OPR/121.0.0.0" version="28.2.3">
  <diagram name="PÃ¡gina-1" id="m5yb55YwnESH1OX1klAd">
    <mxGraphModel dx="3417" dy="1528" grid="1" gridSize="10" guides="1" tooltips="1" connect="1" arrows="1" fold="1" page="1" pageScale="1" pageWidth="827" pageHeight="1169" math="0" shadow="0">
      <root>
        <mxCell id="0" />
        <mxCell id="1" parent="0" />
        <mxCell id="juETD-w41gNVE5XSFF6s-1" value="" style="strokeWidth=1;shadow=0;dashed=0;align=center;html=1;shape=mxgraph.mockup.containers.browserWindow;rSize=0;strokeColor=#666666;strokeColor2=#008cff;strokeColor3=#c4c4c4;mainText=,;recursiveResize=0;" vertex="1" parent="1">
          <mxGeometry y="190" width="550" height="410" as="geometry" />
        </mxCell>
        <mxCell id="juETD-w41gNVE5XSFF6s-2" value="Page 1" style="strokeWidth=1;shadow=0;dashed=0;align=center;html=1;shape=mxgraph.mockup.containers.anchor;fontSize=17;fontColor=#666666;align=left;whiteSpace=wrap;" vertex="1" parent="juETD-w41gNVE5XSFF6s-1">
          <mxGeometry x="60" y="12" width="110" height="26" as="geometry" />
        </mxCell>
        <mxCell id="juETD-w41gNVE5XSFF6s-3" value="https://www.SaboresCaseros/registrate.cl" style="strokeWidth=1;shadow=0;dashed=0;align=center;html=1;shape=mxgraph.mockup.containers.anchor;rSize=0;fontSize=17;fontColor=#666666;align=left;" vertex="1" parent="juETD-w41gNVE5XSFF6s-1">
          <mxGeometry x="130" y="60" width="250" height="26" as="geometry" />
        </mxCell>
        <mxCell id="juETD-w41gNVE5XSFF6s-4" value="" style="strokeWidth=1;shadow=0;dashed=0;align=center;html=1;shape=mxgraph.mockup.forms.rrect;rSize=0;strokeColor=#999999;fillColor=#ffffff;" vertex="1" parent="juETD-w41gNVE5XSFF6s-1">
          <mxGeometry x="155" y="110" width="200" height="300" as="geometry" />
        </mxCell>
        <mxCell id="juETD-w41gNVE5XSFF6s-5" value="Registrate" style="strokeWidth=1;shadow=0;dashed=0;align=center;html=1;shape=mxgraph.mockup.forms.anchor;fontSize=12;fontColor=#666666;align=left;resizeWidth=1;spacingLeft=0;" vertex="1" parent="juETD-w41gNVE5XSFF6s-4">
          <mxGeometry width="100" height="20" relative="1" as="geometry">
            <mxPoint x="10" y="10" as="offset" />
          </mxGeometry>
        </mxCell>
        <mxCell id="juETD-w41gNVE5XSFF6s-6" value="" style="shape=line;strokeColor=#ddeeff;strokeWidth=2;html=1;resizeWidth=1;" vertex="1" parent="juETD-w41gNVE5XSFF6s-4">
          <mxGeometry width="180" height="10" relative="1" as="geometry">
            <mxPoint x="10" y="30" as="offset" />
          </mxGeometry>
        </mxCell>
        <mxCell id="juETD-w41gNVE5XSFF6s-7" value="Email" style="strokeWidth=1;shadow=0;dashed=0;align=center;html=1;shape=mxgraph.mockup.forms.anchor;fontSize=12;fontColor=#666666;align=left;resizeWidth=1;spacingLeft=0;" vertex="1" parent="juETD-w41gNVE5XSFF6s-4">
          <mxGeometry width="100" height="20" relative="1" as="geometry">
            <mxPoint x="10" y="40" as="offset" />
          </mxGeometry>
        </mxCell>
        <mxCell id="juETD-w41gNVE5XSFF6s-8" value="ana@example.com" style="strokeWidth=1;shadow=0;dashed=0;align=center;html=1;shape=mxgraph.mockup.forms.rrect;rSize=0;strokeColor=#999999;fontColor=#666666;align=left;spacingLeft=5;resizeWidth=1;" vertex="1" parent="juETD-w41gNVE5XSFF6s-4">
          <mxGeometry width="150" height="25" relative="1" as="geometry">
            <mxPoint x="10" y="60" as="offset" />
          </mxGeometry>
        </mxCell>
        <mxCell id="juETD-w41gNVE5XSFF6s-9" value="Password:" style="strokeWidth=1;shadow=0;dashed=0;align=center;html=1;shape=mxgraph.mockup.forms.anchor;fontSize=12;fontColor=#666666;align=left;resizeWidth=1;spacingLeft=0;" vertex="1" parent="juETD-w41gNVE5XSFF6s-4">
          <mxGeometry width="100" height="20" relative="1" as="geometry">
            <mxPoint x="10" y="95" as="offset" />
          </mxGeometry>
        </mxCell>
        <mxCell id="juETD-w41gNVE5XSFF6s-10" value="********" style="strokeWidth=1;shadow=0;dashed=0;align=center;html=1;shape=mxgraph.mockup.forms.rrect;rSize=0;strokeColor=#999999;fontColor=#666666;align=left;spacingLeft=5;resizeWidth=1;" vertex="1" parent="juETD-w41gNVE5XSFF6s-4">
          <mxGeometry width="150" height="25" relative="1" as="geometry">
            <mxPoint x="10" y="115" as="offset" />
          </mxGeometry>
        </mxCell>
        <mxCell id="juETD-w41gNVE5XSFF6s-11" value="Registrar" style="strokeWidth=1;shadow=0;dashed=0;align=center;html=1;shape=mxgraph.mockup.forms.rrect;rSize=5;strokeColor=none;fontColor=#ffffff;fillColor=#66bbff;fontSize=16;fontStyle=1;" vertex="1" parent="juETD-w41gNVE5XSFF6s-4">
          <mxGeometry y="1" width="80" height="30" relative="1" as="geometry">
            <mxPoint x="20" y="-150" as="offset" />
          </mxGeometry>
        </mxCell>
        <mxCell id="juETD-w41gNVE5XSFF6s-13" value="" style="shape=line;strokeColor=#ddeeff;strokeWidth=2;html=1;resizeWidth=1;" vertex="1" parent="juETD-w41gNVE5XSFF6s-4">
          <mxGeometry y="1" width="180" height="10" relative="1" as="geometry">
            <mxPoint x="10" y="-90" as="offset" />
          </mxGeometry>
        </mxCell>
        <mxCell id="juETD-w41gNVE5XSFF6s-14" value="" style="strokeWidth=1;shadow=0;dashed=0;align=center;html=1;shape=mxgraph.mockup.forms.anchor;fontSize=12;fontColor=#666666;align=left;spacingLeft=0;resizeWidth=1;" vertex="1" parent="juETD-w41gNVE5XSFF6s-4">
          <mxGeometry y="1" width="150" height="20" relative="1" as="geometry">
            <mxPoint x="10" y="-70" as="offset" />
          </mxGeometry>
        </mxCell>
        <mxCell id="juETD-w41gNVE5XSFF6s-16" value="" style="shape=image;verticalLabelPosition=bottom;labelBackgroundColor=default;verticalAlign=top;aspect=fixed;imageAspect=0;image=data:image/png,iVBORw0KGgoAAAANSUhEUgAAAo0AAAFRCAYAAAARuZeEAAAAAXNSR0IArs4c6QAAAARnQU1BAACxjwv8YQUAAAAJcEhZcwAADsMAAA7DAcdvqGQAANf2SURBVHhe7P07bFrZ//CNfp4j/Q3NDDTz2zQe3CQ7T2FofCmeCTSO3dikOME6ki+nIEQ6cuynIEzDpErcxKQ42GkcR6+EPXp1II3NnAIzeiXsaYj/DaSxPQ3GDWaabU9DdrPeYm+uvoBzz8z6SF8J9rp913etvfaXddn8D13XBRKJRCKRSCQSyRX8P9ovSCQSiUQikUgk7UinUSKRSCQSiUTSEek0SiQSiUQikUg6Ip1GiUQikUgkEklHpNMokUgkEolEIumIdBolEolEIpFIJB2RTuO/Co39dJZitf36v4zqPtnsPv92M0gkEolEch0+2Gms7mdJxEIEAgECgQCRVdMpKW8SeZZFa0/wMaiWyW/GCAUCzIVCzAUibJbbI319aNlnBAIR0l9EV430VD/3DxT6rO1hUC3nSa9G6u0Yim2S1wAtx2oowX4t3v4msZAR51n2k7Qu5fwqEVOPK8vYTxAKhIjnr+n+WR1UV2/TG0hLx1EikUgkki55f6exvEmgv4fvXdOsHrlZeLzI8+fPCap5Ht74ge9+9LOUyH98p7Gc4F7vjwwuweyLV7x4Po+aX8L/4ziJj17Y+1FOP2MuUXOzamQJ3fmF9fUlJiLptrBPTz4yyMRBmLWFW60BWo7YeC/f//gTkZyT2bDRjuFRiN3+ge96b/NwOc2RGd3a58XNNuvr6yTyn8bgducono5llFm9P83y+jL3A6sU24OvxM7Yr7uE30wwGLteSolEIpFI/q28n9NYjDPS72f9QGEm9Zbfn8/i7nNgt9vp8y7w29sNfLb2RB+HYuIJW6fgf7yA2wpwwkHNo/lKpo1OdpZ5ma4pVcNLeM2HqnoIzw63hX1i9iPcW9IIvligxWWs5ggN3ubR9glD0T3++9UDvLeMdnTcusurt7ssqs0JAKsdp9PedvHjYrX3obo7leFgcnEel+LC//Mofe3BHbnFwmMfB48meNbu30skEolEIjnHeziNVRKP7rNzCngWWRy74OFuH2Pxcbu38XFprLAO8+IvHV3/jUlHS5QvgxYnsnTSfhWAW7Ovefv2dxa9F9jsE5J+ssSRbZZ2X3X/yTTLR4AtyPP2GUgwHKtFf/vFrwa79zn/ffzf/Dp5ke6dsU4G8XPAk+Vce5BEIpFIJJI2ru80VreIbxkfncNDXOan9U1ukHw+Wg8vZ2NM/dTPyL0p7o30MzASauxDzIbo7e2lt7eXG6FNcqsBxn/6iYH+XvrvxahtWcuGerkdOQBgfdqIb8gP9PT0EEhjLAPXrt8IsRqf4qf+G/QOTJEoQnF1vJ5ufDXHZugeIz/9RP+NXgYCacrVfeKBcX76aYD+3n5GnuUaE5jVPPGpAW4MjDM1Nc5Afy8DU/G6fvnVEXr/c59tQ0GjnPE45XN1zNZyBG2feGiEgXqeA0yt5sxl/SKr47U6jrOa2yR0b4SffurnRu8Aga42R6aJJwHvMO6W63nW4+ZsqNfbFtaE9zGZ5MIl4Ufn7dcUquVWmRrop39knPGBfvpHIhhbFK9uo4tobrcboSwUVxmv5XGhjS/vRw283B2Fd4kEDbdxn/i9fnoHQuTOxZdIJBKJ5F+MruviWnIYFSoIQLiih+fDL5DDqEsAwrdRMa9VRNJvEeAS0UMzXsovAAGKmEka8Wrp1KeFprzUc2Wn/IY+M6lamQXxVDWu2fwpkZq3CUAMrRhpannAkHhaOBO6rovdoMW4ZhkVayVd6PqZ2BhFgE3M77bp6IqKQ10X+u68UEDgWROlNv2YSZ2zw9nGaGvYWUrM2BCoYbFXi1d4KlQQtpmUONN1oeuHImrWhaGnonCmC11PiRkQ4BPJs9YyzomZn3qurVLCb7bjRbpeJRfZLzVj5OVLGt8rKb+wmfav6LrQ9ZJYGUJgmxe7ut51GxntXBG74SFhU2dEstSky17YsH+tPfTu+1FNjHZv6od7YeE07TJa769SpEiRIkWKlOvPNAKW9gtXkibyqAC48AzVlmXt3J30AQUe3Y+3HpZxzhK+a8TrU40l7oP6psVusZrL104ePB5jbPEte3sFfn/QtvPNt8DCLSOmohphzoUosw4AKzYbwClaTcGx5+wmk2RePzD20A2P4gHYyZI3o1yF1ciwTnH1EeunwJCnMZN3y8eMCqfr00TaVk19CwsY6qq4VYAiR50mG4/yHFzSZhccogagqpUpl9tFO79ltMl+qqEQxaMyUCT+KMkp4Jsdw2hNB6OTKpwus5ql+zaq5lkducH4wQJv377ibvPUtk0x876ALvuR0e4F8sYENrjDbKzMMxNOsjZ5ae4SiUQikfzruL7T2DfMsOmBFPLnH8J1iquMjMcpFw8otIfR5LHkDaemjk251Jm5PjYUq/GKFbf71vl8bbZz12xK+5VmrFhPd3gyMUj/yDiBSLx+qvh9OMi11Nyk5kydkj9oPTlss12l23Vx4/WYH/MHLaePD7YiRCIRHo7f4Mcff+THH29zP7JKtt1BvcB+BgfUqpaPP+PZM0MSJx5mZmZo3dJ5dRsVfvHzcOeU02z6guXlK3jvfmRn+MFzXi3evXTrhUQikUgk/0au7zQyTHjRZXxMxElf8iAvb8fZURQcDgfO9kCaTjqrKkpb0NdJmfjIfxi8v4z98S5vf/+NV4uzF9etTpHV8XHi7c6WiaPvoppX66b5KKeU7fYLZxnBwexiEBtAIc5Wk9fonn3Fq1eviM7WZv08zL/6mbGuvSgHtaq5Z3/m559NWXzBq1evmL14g+SF+JNnFKIuOF1n4qfYNV+t05lqFcCJo6khtXyazdwljSaRSCQSyb+U93AaoW/hd1IzCrxbZ3o8Xn/xc43q/jPuRWDl8RhYfczP2IACO28aHmZ22zhN43nge4/XpXwJ8mR3ANTGMvv+Dm/aYvU5TYcagBPyOc10TM7jDoZxAezsNGxY3mHrAFDmeeBtif5+uL14gUJ9/bWJ4RfsRoeMbQK3A6TbXol4cnTZOxI74WZ+0ZjGTMSbX6C9z7OBXkLXOKxstVq5tfA7Kb8NCo8YvE7iLjjKHwBu3LVOWIxxe3AC/+0fubd5ScNJJBKJRPIv5H/oui7aL3ZHlWL6CY8erbJ1UMXp8eFxWjk52KFsnWTx9SKNt/FopCP3uB87wOkbRT19w1bOgm/tNS/u9mHNhui9t8zJKYAFZfQFG74E05Ft85oN5/xr1phmevWEk3eARWH0xR7h/CD3lk8wojmZf70G09OsnpxgRFPwLu7xm7FRkeLqOLdD20YeXeerMPp8jzVbhPHpdQoOH+FJhXzeiltJsLR+gkUZYjHzBwu39on95OLRGyejozYOlEX2Xo2hrY5zu6k+o2tv+W3WQXU/TmB6jq13XiaHbBxsb3My/JiNtQWG7UVWx28T2jbqcnH9Rnmx95u5D/Miyqz+9CMPT8IU/lxsfU+jiZaPEwpESBROsLpG8bkVqkdv2NGGmPUeEF9WWdNfMXYN+/02a6e4Oce9+wlOVB+j6ikHOxrOxTV+nTwh1Ht5G2VDvY38bE7mX/+JL/Edd16+A8CmjPI8phJZWOXEKBRl/jeOfVtd9aM/n9e88TyR3kGW1DVKv88ay9HVNIEbE6xrQ6y8/YP2LZYSiUQikfxb+QCnsZkqWlmjihW7w/6ee8kkn4pq4h7fTx/wtPCWny/yGpuoamW0KljtDuz/9Ibcj3DDtYQ7ecbru//0ykokEolE8mF8JKdR8nVTJDZwk8jwLn+/+Mz/RvPVUiU99QMTR885/MM8DS+RSCQSieRSpNP4b0FLM3VjGvtvfyH9RtDSU/Tft7L29lXTNgqJRCKRSCSX8V4HYSTfIPYxfn27RjU0xeb7nm/5p6BtMvfEIR1GiUQikUiugZxplEgkEolEIpF0RM40SiQSiUQikUg6Ip1GiUQikUgkEklHpNMokUgkEolEIumIdBolEolEIpFIJB2RTqNEIpFIJBKJpCPSaZRIJBKJRCKRdEQ6jRKJRCKRSCSSjkinUSKRSCQSiUTSEek0SiQSiUQikUg6Ip1GiUQikUgkEklHpNMokUgkEolEIumIdBolEolEIpFIJB2RTqNEIpFIJBKJpCPSaZRIJBKJRCKRdEQ6jRKJRCKRSCSSjkinUSKRSCQSiUTSkf+h67pov3gV1WKWdF5rvwxY6fOO4ba3X/920fJp8jYv3j5re9AnQ8unyRar5jcrfe5h1D47n0KDajFL9tTN2D+p0a7Bv73+3wRannS2SNXah3fMzWdtqWqRbPYU9zXL1fbTZA/Me/hL6H1dqvtkc1aGvX3GOFPOsZkrm4F23GNeLh4CNfLpPDbvZeGmDdN5tCvzkUgk3wrXnmk82I6z/MiP/9EyW1tbpqzzZHqC6XixPfo3TJbQ4AR37q3y+WpV5SD7kifTfqafrLO1tUyg/z983xsgfZGf/kGUiU/fYWIwRLo9qAu0/TSb+dqD5Vvk6vp/+/X7Z1A9yJJYf8L0xDSfe3gpx6e5MzFI6KIOcgVHOwljXPxCeneNlmN1aoDvvndx52GCA/NyOV8b15d55L9DJNuWrkY2xODEHe6tXlHB8pvO+Ugkkm+Ga880AqSnepgghf7rmHmlSKz/JvHgIf+90NcW+xumqqFhx/5Zfx0btnwZPOTtQh+wz7N+F088u/z9Yrg98odR1ShXrTjeo4Ln+8A3yBX1/0fU759CMUb/zZcED9/yeYeXKlq5itXxnjP9X0zv7qim5xiPq4QfP2Ds1kU1TDPVMwEpnctug6qmgb2TfTrnI5FIvg2uPdN4jqqGVu1j4a3ecBi1PPFIgPGBXvpHpghMjTDyLN+arJgmFmrEicT3aUymVSmmY4SmRhgYmSK0mjPDiiRCAQKBAKF4mnQsRCAQIBDZpHlOqLwZITA+QG//CFOBCPH9Rs7FhJkmECCW04xyAgECgQibZYAquZgRHpgLEVrNUVssbmDqNz7AwHiIWLp4QRyN3KqR/sMmCW+huuDd0VFTGZfZp0aZbN02q6xGxhno7WfkmVGXug3mQkSebJ2fSa0WScdCTI300zswTiAwzkjAsHE5HSEQCLD0BnizVLdlIGbkXc3F6tdCiX20fJxIIEAgEGI119BSy8eJmPpH4vlr28jId5yBgXECkU1qK/rN5QdiOfJN7R1KGDW9qv6d6lfjSv2vsF+NK9N3hUY+HiEwNUJ/7wDjoRjZ1gKIR6YYGRhhKhKntqOkYZ9nbGYvbpvuuKT8ao5YzWahBPvmWBAIBFr7aX2MGGA8EGGzviXDoDY+BAIBIonWsQMuT999/S7RH6CYMMeEOUKRJ2y13yBajtXQFCP9vQyMBwjFsi1t2xX1PjLAyNR5/er9u7efkakAUyMjtA2hF9Ns/0CMXLVpPAsEiOWqQJnNSIB7kS1OTnIk1hM0DZGdaSpjLhRiNXd+9Ku1j9Hu25y2BBrl158Pkfi58t+7/hKJ5NOi67q4rqT8CHwbolQqiQ0/As+aKNXDd8W8DeGcWRN7hyVRKqwJnw2BP9XIYy8snCCG5pNi77AkMvNOAT6RPDPCC1GXAKeYSRbE4d6K8NkQtpmUONPPxGEmKeaHEIBQfFGRyayJUQtCjR6a+RfEUxXB6Jo4LBVEKuwRNmwiuGvkXSmkRDK5IvyKkQfKqAhvRIVPQahPC0acvZRIJpNixa8I1Kg4bKu/od+QmE8VRCE1L4ZAuKJG2rpU1oQHBHjEWuW8DS+XQxFVEWp4V5RKJVFY8wkFhG+j0lb+RfbRha5XxMYoAueMSO5lxFOPRYBPRFf8wjOTEiVdF2eHGZFMJkVyfkiAX6Rayi+JNQ/C5gmLVKEkSocZEXbRsENpVySTZhsMzRv5JJMitWfq1xwOAlQxs7JhfPcbOlZSfmFDEb6VPVHYWxE+BWHzp0TlnC0uFiO9TXiiGXFYSImgC4HL1K+yJ1IbQeEC4Vk5FGd788KJTfiiSZEqGDpeWf9O9euofwf7dUzfjZTEhs8mUHwimimI0uGaGKXRf/VKSvhtCMW3IvYKe2LFpwhsfpGqmPZZ8QsFjD6czIjUvHreDlfKVeWXxG7dtkYfUGdWxEbN1mcN/WyeqMgcFkQq6BLgEtFDI/96+4ZTYi8TFR6b0Y9q4Vem76p+V+mvC/3sUGSSSZFMGve2P9Va/7OkT4BTzGdK4nBvTcw428dAUw6jQm3Wuy4FEXWZ92jhUOyt+IQNm5hJnRnhu/PChlPMrO2JQ3MMsF2gx8VSEXupsPCAGH26K0q6Lkq7T8UoCE84JQoVXeiFp0IFMbp2KEqFlAh7bAJbUOyeyysl/BeWWxF7qWR9HG2MvaYUosKF+QzYSxr2ac6nU/kfVH8pUqR8Snl/p9HpETMzM8LjbH0g6npKzGARnqcZUTKdwMONeTG/URtYSmJlCGEJZs7lq+u60EtrwoNF+JONh7SeCQoLHrFWai4/LArN+jQ7pTU5q4hSaVeEVQQzzeGGY4bFL5JXOHSHUfW801jTrzbA67o4S/lb9KtfL2REptCI153UdFOEotiMB+/oRsOh6GSfkuGs+pNmWOHpJQ8uXegp/wXOwqGIuhBOf1IUKobuZ7tRMRPdNZ1SQy61eXM4qnhaaA8zflS0PGgOo0LFJuZNx/5q2RVBS9MDXteFXloRQ1jqPwz0muNh84hRF8IZ3rsgn8vqb8jl9eukfyf7dUrfhWSCwsKQWGnrbzXZnbe19VujT9nmd5vKQ/g2zL55qXNziXQoX9drtm1rJ1N2gxaB+rR+/zbGhF2h6wURdra1WSYoLE36XZ2+i/p1o7+uX+E0NeSsUhKlDV+L01uX9nJNKa15zo09maCl4XimZgQWj3iaKZl95lBszM+Ljfb8r5CUH6HUbLgXFsol/fysUhKl3bBQQcycq2en+ps/cFucxjOx4Wsfs1YudL4vLf8j1F+KFCmfRt5/eXoozKtXr3i9sUI0Okljy84YLw43cG8/ZPCHHnp6fmBiFTxDDjM8T/YN+HzeeooW8ml2eMfWw356e3sNmY7zjiMOTpriDXm41fS1mfJmiJHeHnq+v8Hg4H3iZbhg/RgmZ7l73WON+Sw79DGsNnbxWNVh+tgh27Z8Yr3lxXvhXqHOqIu7HB//hb4XxrkdIJIzAzrZx6GgAEcnxoKZdpCniHKNfZl9LPy+S5gn3LnxPT0933FjLsfwsNph39IFuIJMtjdSMUf2FFxq0yavPhUXp2Rz7euAF1DMsfMODpbuNOo/GOEN7zg5ajSyfexXfpvNs300z8aiuyWLD6Kj/h3s1zF9Z4r5Hd6pk4zWbqkWiuSMApruyT5UF5xmc01L8SqeoWu3KHQsvxkXwfMdgJzRgNyptV/vIJE38O7kiGr5DbkjGPI0tZmzuS4d0tfjXV6/7vW/hNoBkp4efugfZDCSw8K79liXkk/vwLstHvbX9O9lOv4Ojg44ARh7weGGm+2Hg/zQ00PPDxOs4qE+hHbB2Kyfk3iCPJBPxDnxz9LYTlhmMzRCb08P398YZPB+nMuGyOuTJ5sGdXSocWLc4cTZEqdD+R+h/hKJ5NPw/k6jiX34AQtjDmMvUSxHlTyJJzsMr73l+G8d/exPkrMHTN+cJlEFsGO3wNHRJbuAHH0oKCz8dszxcU3+Rtf/pKtn/36E2/5VrIuHnOl/cXz8lrXR9kgGqlttv9QZp4qKxknzJp3TEzRU1NaR8ePg9jDEO7Tanp+O9nEz5oE3D3/kh95eev1J3NEVZrsecMukV1epLvzB8V86uv4Xe88dLN8eJLLfHtekmiceiZNvf+qozQ97kz4nKnB62hS5esopoDrPxT6Pw4ETGH3xZ1P9/0LXdV5PNjkJ+zHmlp0MOZeJxC/pa93SXL+O+newX8f0nbHaFSgecNQeAEAfTqOAlj2wp0YB59vjPbi6/GZUmn1jAwcOowH5s95+x/yl6+ivJ7GaP3pa7HNy0OTsdkjfSHUp3et/EVUS92/zsODl94rO38fHHGfC17Kro08BZYHfmvQ//ltH/3MRN0A+wZOdYdbeHvO3rnP2Z5LZg2luTie6d+zGZvGfxEnk8yTiJ/hnGy7jfuQ2/lUri4dn6H8dc/x2jUuGyPdAQe0DrXmALJ8YzrBJx/I/Rv0lEskn4YOdxhrl3EvWX+YoUya9vkwgsmlserfa6VNV7GhUNYBhwosu3jwc59m+MQRUcyFu9PTzbB9wz7PoOWEpEKG2N1xLT/FDLbwTpxplHKiqw3iAVHNs77RH+gBuTRJ0nbAUeMZ+Faju8yywxIknzGzLpEqeZwPf8V3/Mz7K/u2dCP09I8SVTvY5IpcD/0aFt3t7HJ/p/LHQPttzFVUO1td5dD9m1A8rDrcbJ2W0pueA3fD8KQNa+hlzS43DFlczxuyMje25AJsagMZmYI5tW5CFu+1xL8A6yeOgje25aeK1wxP7MQZ6eri3WXuk5IlMRFCTv/PHb2twf5xYN32nicvr10n/TvbrlL4zjskwM9aX3Jsy7zE04uM99NzbpAqMzc5g254jYBSAthlgbttGsNsCOtCp/KuxMvk4iG17jul47QDZPrGBWnqvYZ9IiKxmhs29bJrH65S+Mx+mvzmOOd2o5lSatrNdf11NN7jnF/GcLBGI1A4GaaSnfqCn/xn7AOU068sBImb7We19qKodtOo1DkyNMes/IT43R/zET5PPyKlWBoeK6jBc7Gpum483RPbhC7o4WQqxWsaoWyjUkn/H8j9K/SUSySehfb36ajkTSV/tgMMF4oqKQz0l/FiEoiDAJhQbAhThW2ve21QRmfCQUEBYbBYBihiN7jb2wJwVjM37TeFG+owIWprKswyJIbX5e1Bk9IrIzLuEBYRFsQmwCJdLNeMMif89ZTmv99BK0yb2tjLq0jioo1cyYt5lEWATNhAW17zInNsbuSvmFS7ZYH6ZGHuzamUOrZSErp+J1Iy5t7F22ONS++iNg0BNulsUVXjmk2YdW8toiNPcf2juf1MUARahKBbDhvOZ1oMahTUxqiCwGOFD5kGg0krjAERdLEGRaalnQaz5jPxtFgSKT6yd2/t4lVREymxjbGYbm/oZh4TMcv0pUUn6Gt+HVkSpY/2vrl9n/bux31Xpu5TChvCr1Psg6oxINu3Rqx2gau8f7e3jGmqyV73PXVBeu1xWvrl/rdW2FhHMtKavpOaFy9JI33oPNexjAaG4VKMMEJ41Q7/L0nddv8v0v8BGNXHW9mcW1oSvNr5ZECgu4TIP1lmC///Lx8imfX5nBeMA1IV9IOU39jSDwKYY+r1PH9kNChsIW22vZ03q45fFGJ8tLuGqjRlDK+L/euo8rzsIlHmxp9f2hF4Q7kvWD+PVx2ALAtUlnGYc23ymY/mlj1V/KVKkfHR5r/c0Sj433b8vbj9yA1c6SOGPn6lvp6zmefbTIC/HCvy5eJ1ZR4lEIpFIJBKDj7Y8LfmUWLF34TACHJWPULzehsMIYHXj9Socld9vF5dEIpFIJBKJnGn8p7EfZ+T2fQ5UP7OzkwzxhkQ8TvJAZW3397Z9lxKJRCKRSCTdIZ3GfyRV9rNpDmq7xu0qY95bXc1USiQSiUQikVyEdBolEolEIpFIJB2RexolEolEIpFIJB2RTqNEIpFIJBKJpCPSaZRIJBKJRCKRdEQ6jRKJRCKRSCSSjnz2gzBaPk229vdvgF31Mnyru3cQnqdKMZsmr4HdPYa37/1y+VrR8mnyNu8/rl4fhsZ+OsuB2YWsfV7G3Ob/uX1lVItZsqfuNv0+jv7afprskRPvmINyOsuR08vYrevn80FUy+SzOYpVO+pY27tBv2K0/TTZRgPgHXPzmS334ZRzbOZg+O4w5DbJMczd4a7/YF7yEaiW82QPLHi9t7BWi+SLdtwf7R4skzMamGEabd3SwvX7D6x9w6jkOLKM4b2lkdvMUTajfZlnY5VyPkuuWAWs9A17cZt/G9mIsk82fYDGRePH1enb/QjOjaXGOHvk9DLmKJPOHuH0jvHRmudfzGeeaaxykH3Jk2k/00/W2dpK8OTOf/j+hxHi1/xvYIMyb7a2WH7k504k2x74jZMlNDjBnXurFNuD/tUcsZPYYmtri/Un00xMx79S+5SJT99hYjBEuuX6x9E/92QC/8QTcuR4MuFn4kmuPconRdsM0Pv9j0wvb7H18iGu7weIvU9FvgBHOwm2trbYWn/C9MQ08W9E72aKifv4/fdJFIsk7vvx30+8Vz/6eimT28ya/9/+9bEfH6H3x5+YHnfR+9M4P/XeZHwp18V/l3dJMcF9v5/7iWJTWzeF78cZ6f2RkSdbHB3t8GTkR24O+nm4XYZy3ujfX+zZqJGe6uXHkSdsHZ1wtPWE8R+/56dY00N+P8ZP37u4v/6GN+v3cX3/E43gTumLxKcnTB/CqOfW1haJ7EGT/ZvGxdwTJvwTfOYh8h/LZ3YarQwvRJntg77ZKK9e/crvxxWSoznuT0S4vt/Yx+TzV4SH2q//E/Dy6qxC5Y8F+tqD/tW4efDqFa9evSI6+zVbxsGD3yuUKi8Ya7n+EfW32LFjx25pD/jE7McY8b9hcrdCJujgpGrDpRSILH3uh9P74X5g2P9VdPYbv7cU7FYrdqX9+j+AYoL7/ods16bLvjasPtYO/+Kv4wJrk6PMvj7kz1dj77lidjmK3Yr1XAMXifnvkxtN8ucfr1hYeM4fu09Ra8GOMRbNMeaLPBtzEe4lYf63P3i18ICFV3/wNukn/2iCyD7GD+qHj8j7k+y9XmTx9R5Jf55HD+PG7GjH9AaGD2Hey69e8Wph+Jz9LXY72O187iHyn8xndhovws7dxUXUoxjL5i+B8maEwPgAvf0jTAUixPdrb6muoZGPRwgEAgRCq2yftgVTpZiOERofYGA8RCxdvOYvwCr76RihQIBAIMLm5iqBUIIiRRKhAIFAgFCiCOe+N9IX0zFCUyMMjEwRWs3RXoPLqZKLGXkG5kKEVpt/vTaVF0+TjoWMeJHN+lKEQZlsPWyV1cg4A739jDzLoeVixvVAgFBiHy0fJxIIEAiEWM01tDSujzMwME4gsknLSkC1SDoWYmqkn96BcQKBcUYCrTpo+TgRs/6ReP4a9Te4svyPwMX5m/YNRYiEAgQCz9hMrxr94Fm2Xgctt0poaoT+3gHGAyFi2VbrFxOm7edCRJ5sfZIZIKdbhT4VBQW1D1S3sxGo5VgNTTHS38vAeIBQLFtvm2q9/Z+xmb247a9KD5B+8oiD4AqLROj3p3GHHzOmwLudXOOHn5YnHgkwPjDAeCDCZq0BqzliZv8LBGLk8gnzPguY99jV5Ru2DRGJGDZ+tplm1WyrrNZav/hm4x6O56/ZAy/Tv2vMMarWT0IxWrqJeQ+NDxhhaTP/mv6RiDG+heJpNiNGGyWaH5hOF6CgOBwoCuBydukA79fHkEAgRq7aNN4EAsRy3dbTHOMC5tgy1TZOX1I/irX2DhFPp4mZukQ2a8bJsxoIEHgUp0iR+KOabiFzpq0xBgYCMXKaUU4g0DwOltmMBBgf6KV/ZIpAJE77I6R+//f2MzIVYGpkhGf55hiXjeFG+UvpPDs7WdLxl2zl8+S2W8e4zs+wDvQ5cQGK4sBhNDDOWgPnlogcqCwu3m1sq7g1y2OfgrPda7qEy/U73x8a91SAQKz2PLrMPoDiZlhxozb5uva7s/g4onhk9IHYjsLCzzX97dz9eQFlJ2a0caf0XeHEGCIVUFT6UGkeIiUfgK7r4vPKoYiqCDV62HRtT4SV2rWCeKoiGF0Th6WCSIU9woZNBHdrcQsi6kLgnBFre3siOeMUgMCfqudXiLoEDIn5VEEUUvNiCIQrWrhAl4ukIlJ+m8DmEeFkRmRWfMIGAvwipZ+Jw0xSzA/Vymv/3ly+U8wkC+Jwb0X4bAjbTEqcnSvrYqnspUQymRQrfkWgRsVhPaypPBCKLyoymTUxamm2Z0VsjBr2Se5lxFOPRYBPRFf8wjOTEqXSrkgmG3mAKmZWNup1ONN1UUn5hQ2b8EQz4rCQEkEXAldNj5JY8yBsnrBIFUqidJgRYRctehrpFeFb2ROFvRXhUxA2f0pULqjrRXJ1+Q05jKpt9ulOLs+/IgprfqGAsPmiIuxBgE34Vp6KURQR3tOFrp+JpA+Bc15kSodib21GOEF41kr1/M8OMyKZTIrk/JDZb87roH+A/kZal8CzJkpme7ia7qezpE+AU8xnSuJwb03MODHj6kKv7InUilFHGBLzyYxIzastel6ZXt8VQYtFBHd1kZpBKOE9o9yUv5FHJSX8NoTNExWZw4JIBV0CXCJ6qAtdr4i91IZhc8+KODzbE/NOw97JVEFUOpRfKawJv4LA5hPRsEcAwuZbEU9HTV2a62fziHAqUx9D/KlKqx0Po0JFNfVqkiv170ZKYsNnEyg+Ec0UROlwTYyCUJ/WxiBzDBuaF6lCQaTmh4z8C7rQS7vmvekSwahfOEHgCouVoFMwutEYQ1IzAktQ7Oq62A1aBDON8edqqYhC6qkYtSBc8xlR0nVR2n0qRkF4wilRqLTHv1j2wk6z/+yJw1JGzDsR+JKmflfU7+xQZJLGmAyK8EUzIrM2Kiz1dqiIQiopkit+oaAI/0rSuJeSGXF41h5ujoOjYbER9QkFVTwt6EIvPBUqiNG1Q1EqpETYYxPYDFvpui703Xlhwylm1vbEYakkCmvGGO9PNep3+RjezRjc6RnWjaTEDMZ9pu8GhYWZ+v15GFUFSljsnUtzXlL+1meTIVfrV9lLGWPf6FOxWzL65NNRBJ6wSBWMe+hy+5zXQdd1oWeCwoJThAttY0VdksLf1gaXpjd9CIviFIoNARbh9IRFqqXvHoqoyxyXS2vCc637V8pV8pU4jRdd04V+VhGl0q4Iq9QHxbMNn4BRsVHvICWx0uy0ldaEB4vwp87q+Zyl/MKCR6yV2nW5QDLBpgHMkN15paWTt9+ILd9r5SebHlCZYPflN8llTkXKj8AZFoXm7y3lI/xJM37h6YUPxpTfcBifFtrL3RVBS/MDThd6aUUM1QYw82Z0+pOiUDFsfLYbFTPRXXPA2BXztra2PIwKFZuY72rQ7FR+Qy6zz9XSIf/DqFDNtjqMqqazYvTP8wPamaiUSmLDd7FTe/Hg2JD30/96clYpidKGr9XpOYwKFYRvw7xHLnOeLkyfEn5UET08Exu+pnY+jArVrOtu0CJQn9b7Z+0etQR3G3lXUsJvswnPqEvgvPwBeL58oy08a6XzbVW7Bw6jQsUigplGPnthZ8s904h3vt5d6X+VZILCwpBYueR+L615BBa/SJ3Vrp2JlN9Sd4xT/lpZKeGv9cuU/6P2lULYKfCZTuheWChX9NNzUrtfmuzbLJ3qZ9QL4QzX7kHje8v9dUnbtIYjLP7klT9GzyolUdoNCxXETC3/1IzA4hFPMyVzzDoUG/PzYqNWVhdj+JVjcLNc8Az7ULnOuHGpXjW5TL+Uv8kxNSZ16u3ThX1apPYjrDZxcOG4eEEfuCy9+Qyy+dZE4cz4IbLma/thIOWTyVewPA1wwkGR+r6D8maIkd4eer6/weDgfeJlqK3R5rNpUEcZqs/LO3A2Tzvns+zQx7DamKe3qsP0sUO2ZfnhYor5Hd6pQXxNaz3Do57mKFeTT7PDO7Ye9tPb22vIdJx3HHFw0h75AxjycKv9GoBDQQGOToyFGu0gTxEF+0XLFq4gk+2ZFHPsvIODpTsN/QcjvOEdJ0dVoI+F33cJ84Q7N76np+c7bszlGB5Wjf0kxRzZU3CpTQbsU3FxSjbXxUJtx/I/kK7yV1BqxxQVpfXEork8PTXwHT09P9A/OEgkZ4F3bZG+JFqO1akBvuvp4Yf+QQYjOSznFFTxDF3UKTqld+JWD8jlrTgVCwc7b6gC5e0EB65hVIrkDANzp2bf3kEib+DdyVFjq4V9jF9/myW/fcT8xiLuRukdyjdQGg3UaKsW+lCbxgW3ZwiOcrzpuEeuS/2vwBhDJhm9UC/IZ3egb5jGEGVFHe6DnSy1IaqvvjbX17JM97G4FZxH3YqzVYV8Is6Jf7Zt7+0V5LO8wYfP2x5g0E39AIY87YPP9ZmcbVqirVNmMzRCb08P398YZPC+sVeu3nZjLzjccLP9cJAfenro+WGCVTwM1dqr2zH8sjG4wzPsQ7HaFTjIc9AecA066jc2i/8kTiIP5BPET/zM1jpIt/YBKCe41z/BtneDt7+OmW1lBU4wH1FmvBNOzJAWLkzfx8J/6/z1etY4cW3tY3ZlkaHTl6y2njqUfAK+DqcxGyf+zsnYaB/sR7jtX8W6eMiZ/hfHx29ZG21EVdQ+0E5obGMsc9LcUZ0qKhonzfscT0/QUFseIpdhtStQPKB560T5qOuNFODoQ0Fh4bdjjo9r8je6/ieLLU/GT4WbMQ+8efgjP/T20utP4o6uMHvRA0xVz++DcjhwAqMv/mzS/y90Xef1pBUok15dpbrwB8d/6ej6X+w9d7B8e9DYpNznRAVOT5tGoOopp4Ba35RzBR3L/0A+NP9qgvu3H1Lw/k5F/5vj42My4S7q9dmokrh/m4cFL79XdP4+PuY4Ez7fzpfSKf0tfD4nyZcJ1Mcv8GxNMzg+zu2HB8wsPqAPBw7DwPxZt+8xf+k6+uvJpofCPrG5ZZxDTpYj5gZ46KL8bim2PMCqp6eA8xIHs5lu9b+ci8aQZpyq2jaGwemJBqpKF0PUx6FvkvmhbWLxTRLxE/x1j6AL7HYsHHF0iQP+KepXTkeIpNsLVHHXT3802I/cxr9qZfHwDP2vY47frtH0CIF8gic7w6y9PeZvXefszySzB9PcnE4YftOHjuEdnmEfimN0kiESbLWcOysS6++hv5tXGHSl3xiz/hPiifz5HxVd2kfLRfjpx2mKs7v8+Xqy8ePbO4aPHRI7jWdEdSfBDj7Gmn6IXJo+F6L3u14izaeh7fYLfjxIPgVf3GmsljeZuveSd75FwreAU40yDlTVYQzQ1RzbO434fb4grpMlQqvmTFo6RKgpnFuTBF0nLAWeGa9rqO7zLLDEiSfM7GU/C5tw+B4w+u4loWf7xgCibRKKvGmPBqen9fD4VtN19zyLnhOWAhFqZwu09BQ/9PTz7PrHw9+DI3I58G9UeLu3x/GZzh8LXVS8hnWSx0Eb23PTxGub1/djDPT0cG+zClQ5WF/n0f2Y+ToMKw63GydltFOMwWbGxvZcgE0NQGMzMMe2LcjC3ZaSLqZj+R/Ih+avVdHMgyjGIKWxs/0hv/k/NhpVQ0FUcxTVdravMSvROf2txyvM5KYZWVbZqBRYCc7y+OksbG9RxMrk4yC27Tmm47UDaPvEBnroubdZn8zIRyaIqEl+/+M31rjPeP11Gp3L7453xGObxuZ8bZPA3Da24IMuZtO60x+gnJii97te7iVanRnHZJgZ60vuTZnloxEfb6S/NWmMYQFzjKnuPyOwdIInPHvpzNXHx8Hsgo83D/0saUEedDZMg+Ewi643PBw3x1iq5EI36Ol/xv7Hqp/VjkKRgyOAfeKPlohtXeaGt3KqlcGhoprv9avmtml+RFBOs74cIGIMUFjtfaiqvX5vf/AY3uEZ9sE4Znk8Y+XlvSlzjAUtu8TygQ3PcBc/r7rUb2zWz0l8jrn2HxVd2KecuMeN23EcGyX+e3EYO0USIfMwk3WScNB4RqQ1QEub92eY2u/2K9PbrFjfnXBQrh29qT1jZpi8ZPZb8hFpX6/+tGLuPzQ3MNdE8a017R+qiMy8S1hAWBSbAItwuVQzrrFPqJKZFy4LAotFgCpcTjMv27zI6LrQKxkx77IIsAkbCItrXmS63OCt67qo7EbFqFLL3yJcqrN1D8aesdEam6GfzdJW/llBrPgUAQiLzWJs+F7r9iBORgRr+bWITyTP2sIsQ2JIbf4eFJnaJuemtBZFFZ75pLHpfWXofN6WoKF3XSoiZbZBrY6u+UxjP4mKsCmKAItQFNNG9XBd6HpBrPmMcJsFgeITa+f2Tl4lV5R/lhS+dv1NGd1oO+hwqVyWf5N9FaWx0V4x2rLW/wprPvOghSIsIBSXy4xrEcHMxX0cnMb+0Y+ifwcprAmfggCbUCwIFJdwKUYZPf/rVkuZriFXy/ehldKV6S3BjFFGZVdEm9vY4hIzycZhoErKvEfb78FCVLjq5flFqtJsD3Mf4BXl/9f//C8zriIU81pzWw2t1PY6Woxwi0UAQp0x+n/9INMF9md0o96HL9W/yc6lNeMgTvMhqEYbbAi/2kiPOiOSTfu96mNYW/9u3J+1ewuBRTHs0Gz/jyJGf3+vPCsZER5qvsdHRXS30X8vq5+x961hc8vQkDGW1r7XdamIzLwx7lssCJQZ86DDxePj0EpTG9THf4txUMLiEq7amDi0Ikopv2FTjHvYxgVj1KVjeDdjcOdn2Dl7XltKYsPfPAYrYrT2jCk8NQ5QnRNFzO/pXT1jjTJ2RdDGxXsFL7WPLvTMzAVlG1LfV6oXxNqoUr8/lNEmH6CL9IW1UaGAsCjmvaH4xcZHsauUTvLZ/xHmmyQ9Rc8EpPRfu5ip+LLsR27gSgcp/PFz4w371TzPfhrk5ViBPxe7/q0vkXybFGP033xJ8PAtC11MvPx7yTH33Qj89jcv5AzNt0lVo6yB3fG+/6r2ZalqZTTsOC7cdN+JKlpZo2p93/SS9+GLL09LPi5H5SMUb9tfMlndeL0KR+XulnckEsk/l3Juk/S+ZuwlZ1Yu6X3LWO04vlGHEcBqd3yAw2fF7viQ9JL3QTqNHSinIwSW3gBvWApEOLcX+ytjLLyGGr9N709TRFY32VyNMPVTL7fjKmvhr32eVCL5MKr5OKH6i6FDxPNd7FP9V1FmO+JnYnCQG/cS+F4vIn1GiUTSLXJ5ugPafprsQe3BY0X9Jv70vMp+Ns1BbZ+wXWXMe+ub/TUqkXRNOcdmrvHLzjF8l+GOJ6b/ZWh50tki9HkZc3/1g5lEIvmKkE6jRCKRSCQSiaQjcnlaIpFIJBKJRNIR6TRKJBKJRCKRSDoinUaJRCKRSCQSSUek0yiRSCQSiUQi6ciXOwhTLZPP5ihWwdo3jEqOI8sY3pYXDH5qqhSzafIa2N1jePs+Z9kfiyr72RzWYS+fR32N/XSW2oFy6wedwGyc8v567P8x63c11WKW7Kn7k+UPjZOyVWsf3jH3t/X/rNUi2ewp7m9Nb4lEIvmH8mVmGvfjjPT+yMiTLY6Odngy8iM3B/083P7cL0Es82Zri+VHfu5EWv79/RtAI7c6xcB33+O685DE9f+c9z05YiexxdbWFutPppmYjlNsj9IVRWID3+O6/5KXj/zcuTnH19ECH6t+nSgTn77DxGCIdHvQR6R6kCWx/oTpiWnin6Yin4xyfJo7E4OE3sdA2j7pzTyfe0SRSCSSfzJfYKaxSKz/JhFXkuNf7xozCPvP6Hf9AtFD3n6B//1KT/UwQQr912/o5dfVNHPjcdTwYx6MfZl3MBZj/dx8GeTw7QLXbjXzr95mCm/5+VYVTQP7V/Zm/w+qXzdUNcpV66f/R4Nv9m/1qmjlKtb3+ceLb+ivPyUSieRb4fM7jbk5vru9w2LLA6xM4t4g8dH/k9mD/4O0BvaxxzyfhEToSdN3I0F5M0LkZZrtIzueoWHGwmFmb9mBYiO+d5JRbZtEXgOHj8XFuzTe8auRjy8Ry5bBPoz94CHLtmansUoxvcrycpwsXmbn53kw1neNB5eZPr5F9kTBO7nA4wfD2DvqVyUXm2M1b+TifvCCB6wy17jAiwU3+aY4xrXhNt0+VH/Q8nGWYgnSeXCPBXn8+O655e/3cqqKCUJP0mineRJbB6i+Sdy21valVv6zOOkThbHZnwnPGkuU1Vysbg/7WJjH6huWYlnK2Bl+8P/Gnvj/ksaBgzJlTcU3aWcnkUNTZ3n+8zAHNdu12/ICO15WPy23ypNYgu0dDeeol9HZMAteo3ddrd9jHgzbKSZCPEmbb163j/H4+eQ5+11W/26pFtOsLifIa+BQYeuXN61Oo5YnvhQjYTQwwcePudvewBdRzRGbWyWPoXv4scqbpRjGrfTA7Oed89f24ywtGXZxDzvJJ16yrbl4/vpXJjH7CAB2xh4/p6lrtNxfRhu44QiCG6+4S5pIJEH5aIf1HfDMeHAC4ObBiwWGuY7+z4inT1DGZvk5PMun3EUgkUgk3wKffXm6mNvhneLD2/IQcDD5+pjfHgww5PNhP1hnefMAcLR9B9gn/ssS6yywm1lh1pEj5LrBXM7Ipx7//gT3d5zMzno5ifm5E6utze0TG/gPg0/KeBcW8GlLLG83NAHYj/3EzYkEzG+wMQ+JiZv8FNtvjXQFRvpltMkVXj/3chS5zY1AmmpH/ayo3kkcR+usn6gMO61YncOoJ+usHzmYHFWxmnF8Ph/D1W3WX+bOLcF9qP5aeoobgyFy7jCvN+axpv3c/Cn2cZZp7S5GfT58oyp27KijPnw+H76hJpc+PcWNwQgH3udsPPdyEBnkxpThRFidw/hqNpx28Z/BJcrDY9gPlnkY+5Nb7irby0usHrlxHP2CfyLC0bDKyS/TLOUN2zXs1v69G6pklx6y/MbNyt5rFr0ay3d+ZCRupL5avxxVwDFk1tl+wPryJu07C66qfzdo6Sl6b06zZZ1kYdZNbmm9tQwtzdSNQUI5N+HXG8xb0/hv/kT9FrkKq5Phuu7TuP4zyFJ5mDH7AcsPY+SqXeSfjzDoCpFzz7LgK7P88BFvhsPM2k8onwKOIcM+PjsH68vUb32Tcnycm9NbWGdXyOy9JuzIs73zhqMq4HAbad0KoOD2mbae9KJar6d/5MDL843neA8iDN6YoubnSyQSyb8WXdfF55TDqCpQo+LwgrCapPwI/KlLv9flrCJKpV0RVhHMtMV3hkXhgvRnGz4Bo2KjUsunJFaGmvIvrQkPFuFPndXzO0v5hQWPWCud1/Wc1NInK41rmWBL+qv003Vd6Cm/QAmLPV0Xur4nwgrCnzpf1oW2/FD99V0RtCDUp4WmPFfEEBYR3O2i/G7lMCpUVBE9bA/bFfM2hBo9bItrE/NN5af8CFDF08JF+Rp1PYyqAs+aKOmHIqo2bNiud/v3mlx2vSFnolIqiQ0fAldrvEv1a5aUX4BfpFqud1f/y6Ugwk6EM7zXuJYJCkuTrXeDFoH6tN7/aveAJbh7QX6XSMovoK2fmNIp//bwZHv/r0tK+Dnf9w+jLoHTL5KFijjTdaGf7YroTFTsnrXr127b9vBL9J+3tbW70X9s89ewjxQpUqT8A+WzzzRa7Qoc5M/NrlyH8maIkd4eer6/weDgfeJloPb30DWGPNxquwSQz6ZBHWWovtTkwGmsX9UisEMfw2pjKc2qDtPHDtnakvBV5NPs8I6th/309vYaMh3nHUccnDTFu0Q/AMZm8Z/ESeSBfIL4iZ/Zbjdmfaj+xRw77+Bg6U5D/8EIb3jHyVG7kT8BxRzZU3CpTVPRfSouTsnm2qbCXEEmLzSiglKbuFSUpm0JHwctt8rUwHf09PxA/+AgkZwF3rXHukq/K7hO/S+i/IbcEQx53I1rTrVp+btIzmhg7tTat3eQyBt4d3J07ja6GhfBcxXsnL+i9kHxCON22OegABZ792u/fQu/sxuGJ3du8H1PD9/dmCM3PGzMJF6LS/Q3GqDJZn2oLjjN5j7ObLtEIpF8o3x2p9ExOskQCbZajsoWifX30N/N+th+hNv+VayLh5zpf3F8/Ja10fZIl6OofaCdcFq/Uuak2ZlzqqhonDQiwOkJGipqs3N5GY4+FBQWfjvm+Lgmf6Prf7LY9By/mjFm/SfEE3nyiTgn/tnuN/N/sP4OnMDoiz+b9P8LXdd5PXntp/L16XOiAqenTe5L9ZRTQHW27fxTmx/sn4lqgvu3H1Lw/k5F/5vj42My4Uu0eB/9rlP/i3AoKO3pTw6anB0HDqOB+bPevsf8pevoryevte8VVJp9W4PO+fcNe7C8e8md73rp/cHFL9oMrxeH2zO6lHJ6ldXqAn+Y/fKvvec4lm8zGLlsC0aVfDxCPN/uEl+kfx9OowGaHOgqp0YDXL89JRKJ5B/EZ3cacczyeMbKy3tTbJp7hLTsEssHNjzDTUNybdDWNolvNS5zqlHGgao6jAdcNcf2TlN4B/p8QVwnS4RWjT1oWjpEqDn9rUmCrhOWAs/YrwLVfZ4FljjxhJltn5S4CPc8i54TlgIRcrX6paf4oaefZ5c90y5gbNbPSXyOufgJ/q6nGT+C/tZJHgdtbM9NEy+aj839GAM9PdzbbH/ofgrGmJ2xsT0XMPuHxmZgjm1bkIW77XE/gPoPh30SL68x761V0QCnWzUPpmjsbF8jfUc+tP5eI30kRFbD2MM797JpItTK5OMgtu05puNF0zHaJzbQQ8+9zWvONF5E5/zLBwe8U5+yd7zH3tsKZ8evGOt+opHqwTrrj+4T2zdytzrcuJ1Q1pp+KdntWDjiqGzsUXw2t0Q8392mxLHZGWzbcwTMAUrbDDC3bSPYXQNIJBLJP5f29erPIyWx4VcEWISiWAQoYnStaW/R3lOhgsBmE2ARNgsCENjmRUaviMy8S1hAWBQj3OVSjXBuiZ9qcUFgGRJDavP3oMjouqhk5oXLgsBiEaAKl7M5f13olYyYd1kE2IQNhMU1LzL1PZBdyFlBrPgUAQiLzaifb60gdD0jgl3oZ+SzK4I2BLag2G3Jvy2PuvhEsran60P11ysiZdq41gau+Yyo6LrQz5LCd65sQ0Y3mvZxXiaZoJFvi1hEMNMcryDWfEb/sFkQKD6xZu4NLK0MnSu3Ybcm2yiKUMxwRTHaAobESkkXemlD+BQEFpuwgLDZanl5xNph5/oV1nxG3jZFWEAoLpdZlkVM/e+r9NMbe2jb4+Bs2v94ef27k0Z6Qz9V2MxyPGsloeu6qKTMe+C6faS0IobO6d7eflfnX0n62/qATSguv1jZNex7YRuDcJr7Dw+jqsBmtK9FMdrgvP4FsTbasIFlKGrsoexS/1obt96/F9hDihQpUv5F8vlfudNMVaOsgf193sMmkUi+PaoJ7n0/hyX5J7/erU0vVilvBuj3v+PF2Ws+xy4IiUQikVyfz7883YzVjkM6jBLJv4dymSLDjHmb16OtOLxjDFOk3N17jyQSiUTyBfiyM40SieRfhkZ2bpA7L62MzgeZ9Tgo78R5ubxNNZhh74X3Wi8xl0gkEsnnQzqNEonks1Mt58nmagdlrPQNe3E75JqDRCKRfM1Ip1EikUgkEolE0pEvu6dRIpFIJBKJRPJNIJ1GiUQikUgkEklHpNMokUgkEolEIumIdBolEolEIpFIJB357AdhqsUs6Qv/zstKn3cMt3zfRgfK5DZz1F5nZ3eP4e37NKdOq8Us2VM3Y7JRPiMa++ksB+b/+Vn7vNL+ksupFsmm82jYcY95aR0KNPLpPDZv+/Vu+dD0n4hyjs1cfQS8oN7XpLpPNmdl2Nv3j3tnsJZPk7d5P9kzAqoUs2ny2qd9Fkm+Hj77TOPBdpzlR378j5bZ2toyZZ0n0xNMx4vt0S+lnNska/737L+Kcr5ut+VHfu5Esu0xPhJl4tN3mBgMkW4P6gJtP81mXr6p+focsZMw2nf9yTQT03G6vyu+IbR90pv5+o8fyXtSfsPW1jKP/Hc4NxRkQwxO3OHe6nv2oA9N/4ko52vPjUvq3S1ajtWpAb773sWdhwk+5j/Ifx1kCQ1OcOfe6iccQ8q8+eTPIsnXxGefaQRIT/UwQQr91zHzSpFY/03iwUP+e6GvLfZFGPFfBg9521X8fybn7fiRqWqUq1Yc9uv/evzkuv0LKMb6ufkyyOHbBf5xvTw9Rc8EpPRfkT3kQ0kzZRiT9tutqmlgf/9/3frQ9J+Wy+vdDdX0HONxlfDjB4zd+jpr+MFUNTTsvMcQfi3keP/v4cs7jS2dukgi9IS0BnbvJKPaNom8Bg4fi4t3cQD51QCx3Cn5xBYHqo9Jtw0A+9hjnk/WHq1ViulVlpfjZPEyOz/Pg7E+rF3kX6NaTLO6nGA7u82R3YNv9jHh2Vvmv1WY+ce3yJ4oeCcXePxguPFPFlqe+FKMRNpIO6SccOR+zu8/u5tKuIoO+Zu8941aLZJeXSa+tc2O5mTUDUcE2Xhl2KCYCPEkbW4hsI/x+Plkq9NyRXrSESKJMkc76+zgYcbjNNK4H/BiYbj+8NHycZZiCdJ5cI8Fefz4Ln1Ws31w4KBMWVPxTdrZSeTQ1Fme/2z8W4iWW+VJLMH2joZz1MvobJgFb3PrdYHZRuncG3Y0J5OzYcILXuy5GHOreQDsY2Eeq29YimUpY2f4wWMeDButcLH+ZtYfQ7+rnEYtx+qTGIntHTTnKN7RWcIL3pb+2xmNfHyJWDrHmx0N5+Qs4fACw0e1+rt58GIBd771+3CjAc0+ngf3GMHHj7nbZ6Vat5+Kb9bBm3ib7cppIpEE5aMd1nfAM+PB6CFN+X9I/bQsz0JxY9bIPsbj50O8Me95sDP2+Dn1YeICjL4PDgeUyxqqbxL7ToKcpjL7/Gfq/354Sf070xiDwM2D5z60+PL5cah+j2U5UbxMLjT6HjTKz5bBPmzn4OEytprzVM0Rm1vF6MXgfvCChXrDdVH+lelNylliS3HyGjiGh2FrlfiRnfm13/h52NpZ/yspsxmJ8LI2fg6PEQ7Pcutc8vd1Gq/Ov3n8cz94jk+Ls5zIo+HAt7jIXaOBrhyjy5sRIi/TbB/Z8QwNMxYOM3u+AhfQ9Iwa9uE+2jLa2D3J/IMx+qzd6FclF5vDHMbaxt7WMPeDFzxgtT7m1eJqHfU3xw+jA2I/eMiyrfEsev/6S756dF0Xn1tSfgS+DVEqlcSGH4FnTZR0Xej6mTjMJMX8EAIQii8qMpk1MWpBqNFDoeu6qBRSIplcEX4FofhXRDKZFMlkUmQOz+r5F6IuAUNiPlUQhdS8GALhiha6yl/XdaHvhYUTxNB8UuwdlkRm3inAJ5Jnzfk7xUyyIA73VoTPhrDNpMSZrgtd3xXzNoRzZk3sHZZEqbAmfDYE/tQ5O1wmV+ffkJT/evkaUhJrHoTNExapQkmUDjMi7EKgRsWhGefsMGPYdX5IgF+krpO+tCuSSdPGQ/P19kntVep5VFJ+YcMmPNGMOCykRNCFwBUVh3pFFNb8QgFh80VF2IMAm/CtPBWjKCK8pwtdPxNJHwLnvMiUDsXe2oxwgvCslS6o6yVS2hA+m9n+hZI4XBsVoIqnhTb9QYAqZlY2jO9+ow0u1/8j6WfKYVRtaZeanCV9ApxiPlMSh3trYsbZfA91IyWx4bMJFJ+IZgqidLgmRkGoTwtCr+yJ1IpfKKgieqif/67rQq+khN+GsHmiInNYEKmgS4CrLT7GPZjMiNS82tSPSmK33reGxLzZP5KpPVH5KPUrid2NoFCxCd9KQVT0iihszAgVp/Cv7HbMo1JYE34Fgc0nomGPAITNtyKejiKU8J4R76r6X5Bnq1REIZUUybqNEMpoWGxEfUKp9UG9IKIuBM4ZkSwcir0Vn7BhEzMpc4wrRIULc4zZSxr2AeFPNcrYSyXr42TL2NZV+Vel14Ve2RCjIJwzSbGXeSo8FgS+qFjxe8RMqtRZ/05SeCpUEKNrh6JUSImwxyawBcVuezw9Jfwt9e5SOuTf/IwBBMqoCG9EhU8x75GOY3RBPFURjK6Jw1JBpMIeYcMmgrsX6HJOWp9Rzpk1kcmY94ArKgpd6lfZS4lkMilW/Mq5MaSylzLG1tGnYrdkjHlPRxF4wiJVqHShf6N91/b2RHLGaehRfxZ1Si/lW5Yv5zQ6PWJmZkZ4nK0OSyM8LArN31uco0MRVS8YzHRd6KU14cEi/E0D1FnKLyx4xFqpm/xLYmUIYQlmzufdnH+y4QTpmWBT/ikxg0V4nmZEyXQyDzfmxfzGBbpeJB3zb8h5u3QjhyLqQjj9SVGoGDY6242KmejuOadUT/kvcBq7S3+5brsiaGkMbrquC720IoawGIPKYVSoZl0Po6rpLBjtff7hcCYqpZLY8DU7bZ0lE7QIhlaudCBSfsNhNB6izdJB/5a476dfTS5zGpvlrFISpQ3fNZyWWn8aEitt/akuh1GhNjuJbd93gxaB+rR+/zTumd2m+AjfhnkPtuenX9a3zst71U8/Exs+hDNstNHZxmhHOzbE6GuetdL5vmj2547170ZMG1n8ybqzXJPSmkdg8YtkpXEtE7SY94JRN0Y3GulKK2LoQufpinHyivI7pS+teQT4RdL8Xnja2k+v1r+9jKvlrFISpd2wUEHMnKvfezqNXeVv1L29Hrp+vTFaP6uIUmlXhFUEMxeNhxdLyk/rGGU66vV76ir9muTSMSTlFyhhsafrQtf3RFi5xI4X6H+24RMwKjbq5Rr9/8Lx/oL0Ur5t+ewHYeoMhXn16hWvN1aIRtuWPwGGPNxqv9YN+Sw79DGsNpZTrOowfeyQrU3Xc1X+ebJvwOfztgcY5NPs8I6th/309vYaMh3nHUccnACM8eJwA/f2QwZ/6KGn5wcmVsEz1NXiWhf5fyh9LPy+S5gn3LnxPT0933FjLsfwsNrlvqUPTF/MsfMODpbuNOo3GOEN7zg5qh1sUlBq5lKUc8uSWm6VqYHv6On5gf7BQSI5C7xri3QpRfI771AnR8/lew5XkMn2TtKF/h+mXxfUNvD39PBD/yCDkRyWaxRQzO/wTp1ktKMBLqJIzjAAd2r17x0k8gbenRyZ/yUNoOIZ6qpHnOcD6wdWJoN+juLr5KmyFd9GDfrOjzFXoDQ6YKMvwjXq3x2Ts3fPbTvJp3fg3RYP+2v59zIdfwdHB5yQJ5sGdXSokc7hNJf4r89F5XfCoSjAESdlAI2DfBGUxr7Hq/XvhjKboRF6e3r4/sYgg/fjlOHatr2ca+Q/OcvddgN1MUaXN0OM9PbQ8/0NBgfvE7+0gCtwOhtjlH2IURXSLQ+xS/TrhrFZ/CdxEnkgnyB+4me2aYn/Kv3zRgdkqNEBcbZ1wKvSS75tvpzTaGIffsDCmINqLkYglnu/flVOE4mkjZOYThUVjZPTpvDTEzRU1K5GVjt2CxwdXXKu09GHgsLCb8ccH9fkb3T9TxbdAHkST3YYXnvL8d86+tmfJGcPmL45TaKbynXM/0Mpk15dpbrwB8d/6ej6X+w9d7B8e5DIfnvci3iP9NU88UicfBVwOHACoy/+bKrfX+i6zuvJLpyMaoL7tx9S8P5ORf+b4+NjMuHruANW7AoUD47aA86jqucdjU76f7B+naiSuH+bhwUvv1d0/j4+5jgTPq/nFVgNA9CFBS7AgcMwAH/W63/MX7qO/nqyux8O56iSj0eI56sfpX4AjD0gqMVY3UwQ31YJ+q6dwyV8zPqruNX2a+DoU0BZ4Lem/I//1tH/XMSNgtoHWvMAVz7p0hlr5+LyO+Iew8MbHv74A729vfiTbqIrs3UH52r9O7MfuY1/1cri4Rn6X8ccv11jtD3SB3Cd/NWLDNRpjN6PcNu/inXxkDP9L46P37J2WQFXcXLS9HaBU040UFWlJcqF+nXFGLP+E+KJPPlEnBP/bONAWgf9FaMD0uiBZU6aO2CH9JJvmy/uNNYo516y/rLx/sGraX3w78cfsRTbMh6CtyYJuk5YCjxjvwpU93kWWOLEE2a2fdboQoYJL7p483CcZ+Yrfaq5EDd6+nm2D7jnWfScsBSIkDPPimjpKX6ohVMmvb5MILKJBmC106eq2NGoXvR6ynY65v+hVDlYX+fR/ZhhH6w43G6clNGaHe1L6S693fC8KQNa+hlz5qZ5rJM8DtrYnpsmXjS96P0YAz093NvswqvWqmiA062aMyQaO9vXeVmGg8nwDNaX95jarBk4zni35XfS/4P164TZj5xuVPOXvrazfa3XhTgmw8xYX3JvyuyjaMTHe+i5t9n0o63xw2s/8bIpfyuTj4PYtueYjhfN+PvEBtrTd8Bux8IRR0YH4dncEvG89lHqZ+BlfsHBS/99tofmrzz8cj0+Uv2vwD2/iOdkiUAkV2+f9NQP9PQ/Y58+fEEXJ0shVs2ZvnQoxE57Jp+Soxw5/GxU3rK3d8yZ/gcLTWPr1fp35lQrg0NFdZhHN3LbH7V+H5x/pzH6VKOMA1V1GD8iqjm2r1WAyc4SceMhxv6zAEsnHhY+XkdmbNbPSXyOufgJ/uZpxg769/mCuE6WCBkdEC0dItRcvw7pJd847evVn1bMQwLmBuxz4vr/iP+Xpem7ZUgMqc3fgyJj5lXJzAsVBBaLAEXMpJr2l1QyYt5lEWATNhAW17zIVHSh6xkR7Cr/isiEh4QCwmIz8h+N7jb2/pwVxIpPETSF+9Zqe9xSwo9FKAoCbEKx0RbehVyVf+GpcLbbDaOM+b0L8jonxl4Ym6IIsAhFsQiwCNd8xqyfuT/lXP5Oc39fp/SmFNbEqFJrH4sYijbXvyJS8y5hAYHN1pS+qX0UpbFRXzFsgbkPr7DmM8JsirCAUFwuM65FBDPt9b1YCht+o//YbAIQ6kxSlHRdlFaGzte9qd9drb+Z94fod5YUvvbyTRndMPt4YU34av3LgkBxCZe5Kf7SvbjtUtgQftXIwwYCdUYk6/uxSmLDZ7SvzdKwEU0HeiqpeeGyNNLX7rF2+7mGXC3fh1ZqB4IKYm3UKMMCwjJkbPL/aPXTG3v9GmV2lkzQYuqqmPdwa1+s5XVZ/dvzOy9tY9A5uxhyVlgxbWC2geITa/X9tRWRMfufxYJAddXHBNt8xtxfd74MfElx1k35V6ZvHCRphFmEonrEfLKRx9X6d5D6+G0xxk+LS7hq4/TQivi/npoHL9pFmTf36HWQDvn//+p9oEna90BfNUY3t49ijg8u1czrir3ETZLyG+OHUmtjZVREd437v9FHL9Pv4jZuPsxpyK4I2rjgkFFn/SsZs/9bLAJU4TIPY2GbF5ku0rfXV8q3I1/klTsSiUTyySnHGflxlcnSHzx4r/2bkvPsE7nhIh0s8MfPt+rL8dX8M34afMlY4U8Wu1rRkVzFe79OTSL5xHw1y9MSiUTy4WjspzfJlaG8tcrO0Cw+6TB+RI4oHyl4vQ2HEcDq9uJVjii/30ZZiUTyjSCdRolE8g/igOV7fm7fvsHth1Wiaw86n5KXXIMxwmsq8du9/DQVYXVzk9XIFD/13iaurhGWE2MfSJl0JMDSG+DNEoHaAU+J5CtBLk9LJJJ/FNVilnRew+4ew9vVv7RIrk11n2z6wDzoAnZ1DO8/9a/4Pisa++ksB7UTVVYV71jtn8gkki+PdBolEolEIpFIJB2Ry9MSiUQikUgkko5Ip1EikUgkEolE0hHpNEokEolEIpFIOiKdRolEIpFIJBJJR6TTKJFIJBKJRCLpiHQaJRKJRCKRSCQdkU6jRCKRSCQSiaQj0mmUSCQSiUQikXREOo0SiUQikUgkko5Ip1EikUgkEolE0hHpNEokEolEIpFIOiKdRolEIpFIJBJJR6TTKJFIJBKJRCLpiHQaJRKJRCKRSCQdkU6jRCKRSCQSiaQj0mmUSCQSiUQikXREOo0SiUQikUgkko5Ip1EikUgkEolE0hHpNEokEolEIpFIOiKdRolEIpFIJBJJR6TTKJFIJBKJRCLpiHQaJRKJRCKRSCQdkU6jRCKRSCQSiaQj/0PXddF+8SqqxSzpvNZ+GbDS5x3DbW+//u2i5dPkbV68fdb2oE/G57RvtZgle+pmrCVTjf10loOq8c3a520L//dwsX2+MrQ86WyRqrUP75ibr1hTiUQikXzjXNtpzK8GCC2ts4OHGY/TvHpKPrHFu8VD3i70taX4VskS6LnDuivK4X8v8Llq9fnsW2b1px95+GaGlP6Ksfr1PKuBGDngNJ9g690ih28/X/2/Hi6zT3do+2my79zcdTvagz4q1VyMuaU4ia13LB6+5aN1D4lEIpFI2ri20wiQnuphghT6r7VHaZFY/03iwUP++5/01KpqaNixf76JRvic9q1qlKtWHJdUsBjr5+bL4L/Uaexsn6s434afkGKM/psvCUqnUSKRSCSfkA93Gi9yrLQ88aUYifQ2R3YPQ8oJR+7n/P6zux6lWkyzupxgO2vE8c0+Jjx7y1xeq1JMr7Ic3yJ7ouCdXODxg2HsFEmEnpDWwO6dZFTbJpHXwOFjcfEutTmd8maEyMs020d2PEPDjIXDzN4yci4mQjxJG8u/7gfP8WlxlhN5NBz4Fhe566iSi82xmjczcz/gxcIwrW6Dqd9ynCxeZufneTDW1xZHI7f6hASTpu7dc6l9qzlic6vkHQ4c5TJlu5dJzwGJrTL2sTDPJ29Bh/rTZgPsYzx+PnmhU/g+TqOWfUYofgCAfewxz4feEHqSRjMu8Pj5JPbcKk9iCbZ3NJyjXkZnwyx4u5uRq+ZizJmNYx8L81h9w1IsSxk7ww8e82DYqKeWj7MUS5DOg3ssyOPHd2nsMtDYjy+xlC2D3c2wM0/i5Taa6zmvf52ETvapFkmvLhPf2mZHczLqhiOCbLy6C+kIkUSZo5222WKzH9GF/loX9qndP3kNHCps/fKm1WnU8sSXnhFPn6CMzfJzePajbm2QSCQSyb+P9z8I8+6UcrlMIvAf/jMep1wPyBG6MciTspfF13tkVsY43d5hJ9+IQT5C/80JEvhYfL3HivsNS/d/IWvuo9uP/cTNiWW0yRVeP/dyFLnNjUCaKg6GfD7sB+ss35/g/o6T2VkvJzE/d2JFM/N94r8ssc4Cu5kVZh05Qq4bzOWMULtrFJ9vmOr2Oo9u/4eb97exjrk53V7il/g+YEX1TuLz+RiubrP+MtdUN7OE2E/cnEjA/AYb85CYuMlPsf3WSNoWkYfLLD+MsHXRFsVOXGRfq5Nh+wHrS0ukrW6qW/eZ8KdxDFvZmn5EokrH+gM4hnz4fD589gPWlzcxXLyPg131MmZ9w/rWKarLDnYXw7xhfafK8KSHPqpklx6y/MbNyt5rFr0ay3d+ZCTebuWLsTqH8dX6wLSL/wwuUR4ew36wzMNYjiqgpae4MRgi5w7zemMea9rPzZ9i1HpIPjKIK5TDPbuAr7zMw0dvGA7PYj8pc9rRPmXi4zeZ3rIyu5Jh73UYR36bnTdHVAGH20jrVgDFbeTj8zHpVbF2pX9n+2jpKXpvTrNlnWRh1k1uab1VRy3N1I1BIgdenm88x3sQYfDGFDU/WCKRSCSS9+H9ZxrfGLMoRzvr7FijTbNRaQI99zh6+hsbC14cVmNma5l5nk/21feKhdwZ/n7hbc8aynFGfpxDSR7z611zaiQ7x3d3DnhR+p1ZR638MIU/F7nVPjPXTFWjrB2wfOc2S0Mp9Fety72Pin6Sx79SK6adC2faavql/uLXMWPqqpqe4oeJk7p+Nar7WXIM4711veXNK+2bnqLnnp3dv1+gTfVwz77L3y80pnoeMdy+PHlp/U3SU/RMQEr/9cI9exfWvxuqCe59H0Et/MnirSqJ8e95MnrRfswqWllj++GPTBevt3c0PdXDRFLlaeEtPxsTrCY55r67zc7jAm9rAeVVfvoxhHv3b14Mt4dvMtXjh5ROe/e52D5FYgM3WVaTpF6McctuNWY/c8MtM9KX9kmTy/Vv5iL77BO54SIxucefi+bMfXaO7+7s1Pc05kI/cHv7cVO7Gf39yegufz0fbi1CIpFIJJIuef+ZxqEwr1694vXGCtFo8/LdGC8ON3BvP2Twhx56en5gYhU8QzVvKk/2Dfh8FziMAPk0O7xj62E/vb29hkzHeccRBydN8YY8XPasLW+GGOntoef7GwwO3ideBsxZzBYmZy91GC8ln2WHPobVhiNoVYfpY4dsbUm7dv2W99oOY51L7Qv0qSj1j7VPDbqu/6fCOknQf0R8PQ/VLeLbKkFfowZabpWpge/o6fmB/sFBIjkLvGvJoTtcQcwV+QbFHDvv4GDpTqP/DEZ4wztOjqqAgtoHxSOzM+0fUMCCvet+0MfC77uEecKdG9/T0/MdN+ZyDA8bM4nX4iL9O9mn/IbcEQx5Gls9cKpN/aNILnsKruZrfaguOM3m6rOtEolEIpFcl/d3Gk3sww9YGHNQzcUIxHJUyZN4ssPw2luO/9bRz/4kOXvA9M1pc/nUjt0CR0eXLEc6+lBQWPjtmOPjmvyNrv9JbWLlSvYj3PavYl085Ez/i+Pjt6yNtkcyUN1q+6XOOFVUNE5Om66dnqChotYOO39Eztu3A9eo/6dk7EEQLbbKZiLOthqk7jNWE9y//ZCC93cq+t8cHx+TCXc7v9iG2uwYmTgcOIHRF3829Z+/0HWd15NWoI9hj4V3L+/wXW8vP7h+QZt5zWLXE3Bl0qurVBf+4PgvHV3/i73nDpZvDxJp26FQp5onHomTb2+8i/TvZB+HggKcnjZldnLQ5Az24VSB09OmvlLl9BRQnefLk0gkEomkSz7YaaxRzr009/+VSa8vE4hsGocfrHb6VBU7GlUNYJjwoos3D8d5tm881qq5EDd6+nm2D7jnWfScsBSIkDP3YGnpKX6ohXfiVKOMA1V1GDM/1RzbO+2RPoBbkwRdJywFnrFfBar7PAssceIJM9sya5Tn2cB3fNf/jLYJyPeiYd8OfOr6d4t3ngXHS/z3txmab5op1apogNOtmoeDNHa2P+KuSuskj4M2tuemiRfrm2QZ6Onh3mYVKHNw8A716R7He3u8rZxx/GrsGgeVqhysr/Pofsxof6w43G6clNGafkjYjV9GlAEt/Yy5pTgXvn6znY728TI7Y2M7EiKrAewTm3vZMlE7NjuDbXuOwKZRoLYZYG7bRnDhblMsiUQikUiuia7rons5E0kfAi4RV1Qc6inhxyIUBQE2odgQoAjfWqEpn4rIhIeEAsJiswhQxGh0V1Rq4WcFseJTBE3hRvqMCFqayrMMiSG1+XtQZPSKyMy7hAWERbEJsAiXSzXjDIn/PWU5r/fQiijVdWsroy4+kTwz41QyYt5lEWATNhAW17zIVNpttSvmFQS2oNg9Z8fLpIN9/+f/U7jNzxZFERYQYBGKYtapi/qvlEpiZeiCvHGKpwVd6GdJ4TsXZsjoRuUCnS+X0sqQWWbr9cKaTyggsBl1UFwu4zsWEcycz+d8nm26WYIi0xKvIlKmDbCZNpjPmP2rIpL+tj5gU4TLvyJ2K7rQ9Q720Q9FVEXYFKXJ9s35m1JYE6MKAosRPhQ1+n83+ne2T0Gs+YzyjXBV2My8PGulljxa75/z9pQiRYoUKVK6lfc6CCORdEM5PsKPq5OU/nhQfx3Sl6aauMf3cxaSfzYdgKqW2Qz043/3grPXk9ffmyiRSCQSyb+Aj7Y8LZEAoO2T3jS2KWyt7jA06/tqHEaAcrkIw2N4m9ejrQ68Y8NQLHde/pdIJBKJ5F+KnGmUfFxyc3x3+yUOp5Mj2zyF/1649JT7F0HLMjd4h5fWUeaDs3gcZXbiL1nerhLM7PGixZuUSCQSiURSQzqNko9MlWI2TV6z4x7zNv0Ly9dElXI+S652UMbax7DXjeOr1FUikUgkkq8D6TRKJBKJRCKRSDoi9zRKJBKJRCKRSDoinUaJRCKRSCQSSUek0yiRSCQSiUQi6Yh0GiUSiUQikUgkHfnsB2G0fJps7dQqYFe9DN+yv+cLlWsndcHuHsP7dR7V/WJo+TR5m/cbs4vGfjrLQf1gs5cx99f5GpxqMUv21N2m38fQ38jjyOllzFEmnT3C6R3j1nWz+VCqZfLZHMWqHXXMy61vpBtp+2myjQbAO+a+xt9EfiWUc2zmYPjuMOQ2yTHM3eGv6Y2nEonk38hnnmmscpB9yZNpP9NP1tnaSvDkzn/4/ocR4t38r/Q5yrzZ2mL5kZ87kWx74L+cLKHBCe7cW6XYHtQF2n6azfyXeNX1ETuJLba2tlh/Ms3EdPy99P/0lIlP32FiMES65frH0D/Hkwk/E09ykHvChH+CJ7n2OJ8WbTNA7/c/Mr28xdbLh7i+HyB2/Yp8EY52EmxtbbG1/oTpiWni34jezRQT9/H775MoFknc9+O/n3iPfiSRSCQfl8/sNFoZXogy2wd9s1FevfqV348rJEdz3J+IcH2/sY/J568ID7Vfl4CXV2cVKn8s0Nce1AW5JxP4n+XbL38G3Dx49YpXr14RnX0fzT8XDh78XqFUecFYy/WPp7/Fbge7HUt7wKdmP8aI/w2TuxUyQQcnVRsupUBk6dv4YeZ+YNj/VXT2vfr+14OC3WrFrrRfl0gkki/DZ3YaL8LO3cVF1KMYy+ZsSnkzQmB8gN7+EaYCEeL7WlsajXw8QiAQIBBaZfu0LZgqxXSM0PgAA+MhYukijQXxbqiyn44RCgQIBCJsbq4SCCUoUiQRChAIBAglinDueyN9MR0jNDXCwMgUodUc7TW4msvTFxMho96BAKFEnlzM+BwIBIjlqkC1cW0uRGg1d77u1SLpWIipkX56B8YJBMYZCWxSBsppw65Lb4A3S/W8A7HWfLR8nEhgnIGBcQKRTZp2HHTFh6bvxMX5m+0VihAJBQgEnrGZXjXa+Vm2bmMtt0poaoT+3gHGAyFi2dYZ13obzIWIPNn6BDNATtwq9KkKKCp9qLidTcFajtXQFCP9vQyMBwjFsvW/P6zmYmabPWMzGycSCBAIhFjNNfXAK9IDpJ884iC4wiIR+v1p3OHHjCnwbifX+GGn5YlHAowPDDAeiLBZa8BqjlitzwRi5PIJ8z4KmPfQ1eUbtg0RiRg2fraZZtVsq6zWWr/4ZuMejeevd4ddqn/XmGNQrZ+EYrR0Ey1PPDLFyMAIU5E4NfVq+kcixn0WiqfZjBhtlGj61dzndAEKisOBogAu5zfuAEskkn8CX4HTCPR58Snv2MkVgX3ivyyxzgK7mRVmHTlCrhvM1Zfn9okN/IfBJ2W8Cwv4tCWWt1uz24/9xM2JBMxvsDEPiYmb/BTrdh5TIz3Vi2t6C6tvltnhA+77H7K+vMkBDoZ8PuwH6yxvHsC57wZG+ctokyu8fu7lKHKbG4H0eeftEq5K7xjy4XOfsrW+Q1Vx4nScsr6exzrmY9hpBayo3kl8Ph/D1W3WX+ba/k+5THz8JtNbVmZXMuy9DuPIb7Pz5sjI3+3D5/PhVgDFjc9nfJ/0qvV9p1p6ihuDIXLuMK835rGm/dz8Kda18/Sh6Ttxef52XO4q28tLrB65cRz9gn8iwtGwyskv0yzlAapklx6y/MbNyt5rFr0ay3d+ZCTesKJjyLCJz35g9ouPjRWrBRS7Fax2FCxYm/YTVrNLPFx+g3tlj9eLXrTlO/w4EqcMWFUvk8NVttd/wX9nlapvlkn7Ng9vz9WX0a9KDzm2tizMznrJrr7EGn7F4tgYi4t+OMhzBKClmboxSCjnJvx6g3lrGv/Nn4zla6uKd3IMa36d9SMriqrCzjpbp258oy7sHcq3u9xUt5dZWj3C7TjiF/8EkaNh1JNfmF7Kt9Tv/v0trJOzTDpyhAZvMJXu0nG8Sv+uKJO4d4PByAHuBytkdhdg+REPa3tszPwjB16ebzzHexBh8MYUaQ2szmHsB+ssLaWxuqts3Z/An3YwbN1i+lGiMUZYrWCxYwfsdovxXSKRSL40uq6LzyuHIqoi1Ohhh2u60M8qolTaFWEVwUxK6LouzjZ8AkbFRqUWryRWhhD4jXC9tCY8WIQ/dVbP5yzlFxY8Yq3UrssFkgkKC6qIHjau7c4rAvwiZX5P+ZvKa/9eKz9Zacuzy/K7TF+IugSuUeGxIUY3muI2yWFUFahRcdhy/VBEXQinPykKFcNGZ7tRMRPdFWdN8drr2JBdEbQg1KeFxrXSihjCIoK77XEvku7TX6x/J+mQ/2FUqKYtD6OqwLMmSmb/86fa8zoTlVJJbPgQuC7QI+Vv6Rft8n76X0/OKiVR2vAJcDX67GFUqCB8G+Y9cBgValufvjx9SvhRRfTwTGz4mu7Jw6hQzbruBi0C9ako1PMx7kFLcLeRdyUl/Dab8Iy6BM6w2LtA94vLN9rCs1Y631a1/ngYFSoWEcw08tkLOwXOcJNOl9e7K/2vkkxQWBgSK5fcz7vztrZ2N+pkmzfyT/lrZaWEv9YvU/5P3lekSJEi5UPl65hp5ISDIvW9W+XNECO9PfR8f4PBwfvEy1D7CZ7PpkEdZah+HNKBs3npLp9lhz6G1cYvc6s6TB87ZLvYolfM7/BODeJrWgsaHvU0R7mafJod3rH1sJ/e3l5DpuO844iDk/bIF9Bl+lsLv7Nm32bHvcbG5HXOhvax8PsuYZ5w58b39PR8x425HMPDjZnEKynm2HkHB0t3GvoNRnjDO06OuphL/dD0negqfwWldhBVUWg/k6rlVpka+I6enh/oHxwkkrPAu7ZIXxItx+rUAN/19PBD/yCDkRyWcwqqeIYuadEr0ztxqwfk8lacioWDnTdUgfJ2ggPXMCpFcoaBuVOzb+8gkTfw7sSYrQbAPsavv82S3z5ifmMRd6P0DuUbKI0GarRVC32oTfe92zMERznedDy71aX+V2CMEZOMXqhXkVz2FFxq03JyH6oLTrO5+mx6n1rbqNhH/aNEIpF85XwdTmM2Tvydk7HRPtiPcNu/inXxkDP9L46P37I22oiqqH2gndDYxljmpNkZc6qoaJw073M8PUFDbXnIXIbVrkDxwFiGMykfNX/rgKMPBYWF3445Pq7J3+j6nyy2PDkvocv0WnqO0NEQQ/kQkWudrC2TXl2luvAHx3/p6Ppf7D13sHx7kMhlK/jVPPFInHwVcDhwAqMv/mzS7y90Xef15CVOSjMfmr4TH5p/NcH92w8peH+nov/N8fExmfDXtJusSuL+bR4WvPxe0fn7+JjjTPga+906pb+Fz+ck+TKB+vgFnq1pBsfHuf3wgJnFB/ThwGEYmD/r9j3mL11Hfz3Z9MNjn9jcMs4hJ8uR2tI3XZTfLcWWH1HV01PAeYmD2Uy3+l/ORWNEgz6cKnB62uSAVjk9BVS5L1EikXzbfHGnsVreZOreS975FgnfAk41yjhQVYcxgFdzbO804vf5grhOlgitGo8hLR0i1BTOrUmCrhOWAs/YrwLVfZ4FljjxhJm91RTvEhy+B4y+e0no2b4x6GubhCJv2qM1HgraJvGtpuvueRY9JywFItTOHmjpKX7o6efZZU5ZM92k1xJMTxQIp/7gj98mSYwb+6W6o8rB+jqP7scM+2DF4XbjpIzW5Gjb7RY4OqIMaOlnzC2Zm/mtkzwO2tiemyZeOzywH2Ogp4d7m13M03xo+k58aP5aFQ1wulXz3X4aO9sff9fi+6NRNRRENSeYtZ3ta+yr7Jz+1uMVZnLTjCyrbFQKrARnefx0Fra3KGJl8nEQ2/Yc0/HaAbN9YgM99NzbrDtK+cgEETXJ73/8xhr3Ga/vKe5cfne8Ix7bNA4vaZsE5raxBR+0nWS/iO70Bygnpuj9rpd7idbpS8dkmBnrS+5NmeWjER9vpB+bncG2PUdg0wzdDDC3bSO4cLclH4lEIvnmaF+v/rRi7j+kVRTfWtP+oorIzLuEBYRFsQmwCJdLNeMa+4gqmXnhsiCwWASowuU087LNi4yuC72SEfMuiwCbsIGwuOZFpr4HsrNUdqNiVKnlbxEu1dm6d23vqVBBYDP0s1nayj8riBWfIgBhsVkEKMK31rTHrpNcmv5MpGYsdbupTwui8NRZ/24JZoSuZ0Swpk+L+ETyTG/sr1IUARahKGYd5zOi0qxDYa3FBkPRZv0rImW2Uc0G59JfKVekP0sK3zndDbls7+Z5uSz/JtsoilDMfBXFsHWtfxXWfEaYTREWEIrLZca1iGDm4j4MTvG08LH07yCFNeFTEGATigWB4hIuxSij53/dainTNeRq+T60UroyvdGHdKFXdkXUZ/QRmwWBxSVmkqW6DpWUeQ+232OFqHDVy/OLVKXZHuY+wCvK/6//+V9mXEUo5rXmthpaqe11tBjhFuN+UGeSoqTrQtfPRNLXqG+LjG7U++il+jfZubTmEWDurzzXBhvCrzbSo86IZPOeY7MPtd//pZUhU5/avYfAohh2aLa/FClSpHyF8tn/EeabJD1FzwSk9F+7mMmQSCSflGKM/psvCR6+ZUGu90okEsln44svT0skEolEIpFIvn6k09iBcjpCwHjTNUuBCOmOpzMlEsmnopqPE3oUp0iR+KMQ8XwX+1QlEolE8lGQy9Md0PbTZA9qDyYrqneMW9d5w41EIvl4lHNs5ppetD58l+GOJ6YlEolE8jGQTqNEIpFIJBKJpCNyeVoikUgkEolE0hHpNEokEolEIpFIOiKdRolEIpFIJBJJR6TTKJFIJBKJRCLpyJc7CFMtk8/mKFbB2jeMSo4jyxjeW938++vHokoxmyavgd09hrfv45at5dPkbd6Pnq/EoFrMkj11M+b+px1n19hPZzlyehlzlElnj3B+iVP79XvUjjrm5bPemh9AyxsPrH14x9zmX0J+Q5RzbOZg+O4w5DbJMcxdeUxcIpF8Yb7MTON+nJHeHxl5ssXR0Q5PRn7k5qCfh9uf+yWIZd5sbbH8yM+dSLY98APJEhqc4M69VYrtQV1Qzm2SNf4c+pOg7afZzH9ue39MysSn7zAxGCLdHtQFX3f9czyZ8DPxJAe5J0z4J3iSa4/zadE2A/R+/yPTy1tsvXyI6/sBYu/Tkb8ARzsJtra22Fp/wvTENPFvRO9mion7+P33SRSLJO778d9PvNc48u+lTG4zyyccQiWSfyVfwGksEvPfJzea5M8/XrGw8Jw/dp+itkf7LPQx+fwV4aH26x8DL6/OKlT+WOD6/3RmPCg+pROdezKB/1m+/fI3hIMHv1coVV681187fgv1t9jtYLdjaQ/41OzHGPG/YXK3Qibo4KRqw6UUiCx97B9Wnwb3g1e8evWKV9HZ97j3viYU7FYrdqX9uqQjxQT3/Q/5hEOoRPKv5PMvT+fm+O72Dost/xtbJnFvkPjo/8nswf9BWgP72GOeT0Ii9KTpu5GgvBkh8jLN9pEdz9AwY+Ews7fshrNVi++dZFTbJpHXwOFjcfEujcUdjXx8iVi2DPZh7AcPWbal0H+tuR9ViulVlpfjZPEyOz/Pg7E+uludq5KLzbFa80fcD3ixMGym7axffjVALHdKPrHFgepj0m0DWutf1y++RfZEwTu5wOMHw9i7yL+cjhBJlDnaWWcHDzMe5wV6gpaPs/QsTvpEYWz2Z8Kz3S3xVXMx5szK28fCPFbfsBTLUsbO8IPHPBg2ctHycZZiCdJ5cI8Fefz4Lo1VfI39+BJL2TLY3Qw78yRebqO5nvP610lIhHiS1oyo9jEeP59sdQ6qRdKry8S3ttnRnIy64YggG6/uQof604X+Wm6VJ7EE2zsazlEvo7NhFrxG7+q2/lezz7N+F+vBQ976tui/+ZKZwlt+vmUGazlWn8RIbO+gOUfxjs4SXvDiaClfxTfr4E38grKvSA+Qnurhnj3DX7MJem/neJBahMgES++eUnj7M7cAtDzxpRgJowEJPn7M3T4rVHPE5lYxLODmwYKDRCyNRlNbXVF+MRHiSRocDiiXNVTfJPadBDlNZfb5zwwfNOrn9VnJb+XRcOBdCDPbvk3hqv+ovkz/rjHHkHSONzsazslZwuEFzG5g5v+MePoEZWyWn8OzuO2N9nE4HJTLZezeSTwHCbbKdsbCz5mstfHmFD1+4//umephgiT6r3ebyr+EYoLQkzQadryTo2jbCYwhYJHFu46W8LHHz5mk7Xt9iKndQ1lOFC+TC2b/aW/fFw9gtTHeuR+8YGFYYzMS4WV6myO7h6HhMcLhWW5dp/6Xld+pfuRZDcTIneZJbB2g+iYxhtAu6yeRSK5G13XxOeUwqgqUsNi7IEzXz8RhJinmhxD4Uxd814WuF8RTFcHomjgsFUQq7BE2bCK425YehOKLikxmTYxaEGr0sJ4+6kLgnBFre3siOeMU0Jy/LgpRl4AhMZ8qiEJqXgyBcEULF+h7sVT2UiKZTIoVvyJQo+Lwovpdol+lkBLJ5IrwKwjFvyKSyaRIJpMic3jWpp9TzCQL4nBvRfhsCNtMSpx1kb9e2hXJpBlnaL6ef2qv0tA/5Rc2FOFb2ROFvRXhUxA2f0pULqjrOWnOHwSoYmZlo96GZ/X8bcITzYjDQkoEXQhcDTvthZ0Cm0dEM3si6XcKUEV4LSw8nqjY03Vxdpgx9J4fEuAXqRYdSmLNg7B5wiJVKInSYUaEXTTaoVP9O+p/JpI+BM55kSkdir21GeEE4VkrdZn+Apudk0MRdZl5ltaEB5eIHjbCz5I+AU4xnymJw701MeNE4FkTJV0XemVPpFb8QgGjDyczIjWvttjpyvT6rghaLCK4q4vUDEIJ7xnlpvyNPCop4bchbJ6oyBwWRCroEtR1rIi91IbRpp4VcXi2J+adCJsvKpKpgqh0KL9SWBN+BYHNJ6JhjwCEzbcino6aujTXz+YR4VSmPgb4U40+rOu60A+jQkVtsZ3eUf9upCQ2fDaB4hPRTEGUDtfEKAj1qTlGmPkrvhWxV9gTKz5FYPOLVMXoH0bfcIlg1C+cIHCFxUrQKRjdaPSP1IzAEhS7ui52gxbBTGN8ulLODkUmaYxZoAhfNCMya6PCUrNDU7g/dcF3XW8ZI5OFQ7G34hM2bGImdWa2b1h4QIw+3RUlXRel3adiFIQnnBKFii70wlOhghhdOxSlQkqEPTaBzahLd/W/ovxO9dMropBKiuSKXygowr9i3N/JZEYcnnVTvwtsKkWKlLp8GaexxZE6Lyl/qxPX/r0uZxVRKu2KsErLoJryI3CGReGC9GcbPgGjYqNSy6ckVpqd0tKa8GAR/qYB5CzlFxY8Yq10Xter5LK6XqWfIYciqjY7uk1S0y/Z9IDMBFv065z/xdcM2RXztrayD6NCxSbmd9vjXi4pv+EwPS20h+2KoKXpAavrQi+tiCEMR+V8eFL4Wx5oTdLsyNTFcLic/qQoVIw2PNuNipnobovDdnn9m8Iv1L9ZzkSlVBIbvlant/v0Hy5nlZIobfhanZ7DqFBB+DbMPnyZ83Rh+pTwo4ro4ZnY8DX1g8OoUE1b7wYtAvVpvX/V7iFLcLeRdyUl/Dab8Iy6BM7LfiReVL7R9z1rJbNMo18fRtVGex1GhYpFBDONfPbCzpY+34h3vt5d6X+VZILCwpBYuWQ82J23td33Rp1s80b+KX+trJTw1/p9yn/hWPF+khJ+EM5w7R4yvjfuoau/l9Y8AotfJOtjpC4yQUvTDwujDvUfFHthoZy7Dw05q5REaTcsVBAzZv6d6t+5/E71u7zt9a7ylyJFymXy2fc0Wu0KHOQ5aA+4BuXNECO9PfR8f4PBwfvEy0D7huchj7GM1kY+mwZ1lKH6SoQDp7lCaUZghz6G1cZSlVUdpo8dsh9zC9wl+nUkn2aHd2w97Ke3t9eQ6TjvOOLgpCne++ZfzJE9BZfatJ7Xp+LilGzumlvxXcHGclONYo6dd3CwdKeh/2CEN7zj5KgKKKh9UDwyK7N/QAEL9q5XjvpY+H2XME+4c+N7enq+48ZcjuFhtcvtBU1cpD+g5VaZGviOnp4f6B8cJJKzwLv2WJen/2C0HKtTA3zX08MP/YMMRnJYzimg4hm6pMZXpnfiVg/I5a04FQsHO2+oAuXtBAeuYVSK5IwG5E6t/XoHibyBdydHjdvQPsavv82S3z5ifmMRd6P0DuUbKEptnVeh/rGFPtSm+9btGYKjHG867mHrUv8rKOZ3eKdOMnqhXkVyxg3UtGWiD9UFp9lc/TBLn1rbqNhH/eNHZsjzfp0vn96Bd1s87K/Zp5fp+Ds4OqA2xIzN+jmJJ8gD+UScE/9s097iMpuhEXp7evj+xiCD9+O0D9FX1b+b8vnE9ZNIJBfz2Z1Gx+gkQyTYatlTXyTW30N/N8cz9yPc9q9iXTzkTP+L4+O3rI22R7ocRe0D7YTT+pUyJ80jhVNFReOkEQFOT9BQWx5Sn5VymkgkTRnA0YeCwsJvxxwf1+RvdP1PFluezNegmiceiZOvAn1OVOD0tGmIr55yCqjO9o1hHVCbH5wmDgdOYPTFn036/4Wu67yetAJ9DHssvHt5h+96e/nB9QvazGsWh9szuowy6dVVqgt/cPyXjq7/xd5zB8u3B4nst8c1aa5/MxfpX01w//ZDCt7fqeh/c3x8TCZ8LpbBRek/mCqJ+7d5WPDye0Xn7+NjjjPha5TTKf0tfD4nyZcJ1Mcv8GxNMzg+zu2HB8wsPqAPBw6jAfmz3n7H/KXr6K8nmxzzfWJzyziHnCxHDKfBoFP53VJs+ZFUPT0FnJc4mM10q//lWO0KFA84ag8AoA+ncQM1OUlVTo0b6D3q+flx9CmgLPBbk32O/9bR/2xy/sdm8Z/ESeTzJOIn+GcbLuN+5Db+VSuLh2fofx1z/HaNawzR3ZV/TcrpCJG00Qs/Rf4Syb+Fz+404pjl8YyVl/em2DTPMmjZJZYPbHiGm4bU2qCrbRLfalzmVKOMA1V1GAN8Ncf2TlN4B/p8QVwnS4RWjQFES4cINae/NUnQdcJS4JnxuobqPs8CS5x4wsy+3w/b98A4MVk8MB5L+/FHLMW2jIeUe55FzwlLgQi5mv3SU/zQ08+zy5yiC7DbLXB0RBnQ0s+YW4qT1wDGmJ2xsT0XMNtHYzMwx7YtyEIX+/A7Yp3kcdDG9tw08aL5WN2PMdDTw73NKlDm4OAd6tM9jvf2eFs54/jVWFeHcAyqHKyv8+h+zHzdhhWH242TMlrTD4HL698BrYoGON2qqZPGzvaHzJtfF42qoQBq7VzLzvY1Zu47p7/1eIWZ3DQjyyoblQIrwVkeP52F7S2KWJl8HMS2Pcd0vGg6RvvEBnroubdZd5TykQkiapLf//iNNe4zHqt1zs7ld8c74rFN44CNtklgbhtb8EEXJ+m70x+gnJii97te7iVapy8dk2FmrC+5N2WWj0Z8vJF+bHYG2/YcAXOA0zYDzG3bCH6UG+jjUfthqG3GaR5i3fOLeE6WCERy9fqlp36gp/8ZjSFmjFn/CfG5OeInfpp8Rk61MjhUVIfhgldz21xjiO6y/A5Y7SgUMYbQfeKPlohtGePpR8lfIvm30r5e/XmkJDb8igCLUBSLAEWMrjXtcdszNlJjswmwCJvFPFRgmxcZvSIy8y5hAWFRjHCXSzUPHdwSP9XigsAyJIbU5u9BkdF1UcnMC5cFgcUiQBUuZ3P+utArGTHvsgiwCRsIi2teZJr2v1wtGRFs1qEuPpE8awu7RD/d1FGlpqMiZpo3+Z8VjM31ICw2I9y3Vjhf9hX564U1MarU8reIoZaDPgWx5jPax2ZBoPjEWpd780orQ+fr3lyurgtdr4iU2Ya1NnbNZ8yDNhWR9Fta09sU4fKviN2K3tiD2l4GTnP/oLl/TGnuX835m3JJ/bvRv7DmMw9iKMICQnG5zIMnFjH1vzun/2AprAmfggCbUCwIFJdwKUZZPf/rVkvZriFXy/ehldKV6S3BjFFGZVdEm/uAxSVmkuZhH10XlZR5D7XfI4WocNXL84tUJSl89e/mPsAryv+v//lfZlxFKOY1FMW0r6m/uadRqbcfQp1JmvvRzINK7W0AgtGNeh+4VP8mO5fWjIM49UNOLW2wIfxqIz3qjEg27XGs9ZHW+7O5f9X6JgKLYtih2f7vK5mgcV+ZYhkaMsaR2ncz/72nxphpsyGw2OppbPNG+FnBOAB35RiwGxQ2ELb2vaD18dMiFJvRd1y1caivr6v6X1p+l/XT9YrIzBt1tFgQKDPGQSRTx0vzb7enFClSWuTzv3KnmapGWQO7w97VspDkn081cY/v5ywk//yVu7XpxWqZzUA//ncvOOtyCVHyD+aqV+lIJBKJ5JPx+Zenm7HacUiHUdJEuVyE4TG8zevRVgfesWEolpv2xkkkEolEIvmcfFmnUSJpo2/2OcGD+/ynf5xQLMFmIkZovJ//3D8g+Pxb/4cPyYdSzccJPYpTpEj8UYj4udNLEolEIvlUfNnlaYnkQqqU81lytYMy1j6GvW7MffWSfzPlHJu5xnyzY/guwx1PTEskEonkYyCdRolEIpFIJBJJR+TytEQikUgkEomkI9JplEgkEolEIpF0RDqNEolEIpFIJJKOSKdRIpFIJBKJRNKRz34QplrMkr7w/9qs9HnHcHf/f3GSL4LGfjrLQf1gs5exf3CjVYtZcgzj7fuYR7cNGx45vYw5yqSzRzi9Y9yyA1qedLb293at2N1jePusaPtpso0GwDvmvsbfLH5GqkWy2VPcbfp9M/p/Lqr7ZHNWhr19/5531pZzbOZg+O4w5DbJMcxdeQxeIvnq+exOY341QGhpnR08zHic5tVT8okt3i0e8rbLv3go5zY5sI3hvfWvGWa/EvKsBmLkgNN8gq13ixy+XfiHvj+xSGzgJo+O5tn96znD7cHvTZqpngmS/hT6bJyeiST+lM6vY1BOR3gYibF1oOKbdGMzUxztrLMzlEL/dYz8aoCY0QAktt6x+JX+M0p59Sd+fPiGmZTOq6b/Jv5W9P8gtH3S2Xe477q51BXScqzOzRFKFninPmXv7c+42+P8QynG+rn5CKKHKZi4ySOi/+BxRCL55/DZl6fdD14RHgKGwrx69cqUKLN9YGmPfClFEvf9PNyW/w/y+XHzwGy36Ow/fYjvY+GPCpXjj+kwNrDY7WC3t/R7x9iiYde+WaL1+8O8Z8zfR+4H5vXo1/2yc8eD36mUKrxochj5hvT/IHJPmPA/I99+vYlqLk6CWV4XztD/RQ5jAwW71Ypdab8ukUi+Vj6703iOqoZW7WPhrc5/L0AiFCAQCBCKp0nHQgQCAQKRzfrfx+VXAwQCj4gXoRh/ZIQHAoQSxeZMKaZjhMYHGBgPEUvXlvuKHfOv51BMEwsFGB/opX9kikh8n8aiupn/1AgDI1OEVnNNYcYSYzzSSBuYGmHk2VWPjxpVcjFDv0AgQCxXpZqL1b8HYjmzHh3Kv7T+3aPl40QC4wwMjBOIbFJ7z/aHYdo/FCESChAIPGMzvUooECDwLNtSh4vLb7LPs02y8YjxObRKrjlxtUg6FmJqpJ/egXECgXFGAo021nKrhKZG6O8dYDwQIpZtb/1GPwnMhQjFWnXjUv26xYlbhT5VAUWlDxV3bdK9napGWasy9quO3jxd96HU++gA44EIm2YFiokQgUCISMS4N55tplk12ypbM4KWYzU0xUh/LwPjAUKxbOv9U0wYbRqYIxR5wlbzrfmhaFme1e6HUIJic1sFQiSKXejXDZfYx6Bx/xl9KMD4SIDNMlBOEwkECCy9Ad6wVNM1ECNXz6LMZiTAvcgWJyc5EusJ9ts7WCfqfXyAkakQq7UboG77EPG0MYYFAgEim11aoCl9onjBd5N6/+/tZ2QqwNTICC1DnKnf+MAA46EY6bYbpM/pAhQUhwNFAVzOf+4PCInkH8SXcxrfnVIul0kE/sN/xuPmoO5gyOfDfrDO8v0J7u84mZ31chLzcydmjFhOzyQ+3yiqHezqKD6fz5ChxiLQfuwnbk4kYH6DjXlITNzkp9h+V/kDkI/Qf3OC/7u9v4lpK3sbfcHfUZ+LPegqe3Dqvz14U2ZwUjs9iN2DYE8S04MEJokzidGVAPfAMdIVMXdAXBNXpJZIJuAM2pAJIWrJUGrJzgRcPTCud2CoOzC8R2q7dCRw9cAYHcmmJoa6A7N1pdWDvf2B+bAJ5Ktq/aRHYu+19lrP+n6817M2Cby8er/NgnOLuac/kTXmPT39eWojC7x/Pche5B43A2nDMMsxfXOAmcogr95vk1kY5nB9g418L5O2GXVwBNveMstVFbfdjNnuRq0us7xnY2RIxdw1/4vK3xu19Cg3B6bJOcO8XwlhTvv44W6Mq6/9VhzOOuvzcyzuObHt/YTvUYQ9t0r1pzHmjEXn/Pz1+nHX11n+yceDxTpe/wjW9Wfcm0wbeVSIP/yBsTUz/oUM2+/D2PLrbGztNQ3u7Nwz5recLGy/59VgjfkH33M/3t4+VhxDer/S81ok1xZ6vn69YsZsAsVqBrMVBRPmU14WVaqVCvnYPb6/MX0i/ytTSzN6c4DpnJPw+xVC5jS+H+4SK4HV4aS+Ps/c4h5O2x4/+R4R2XOjVn9izGigenaOZ/NbOBe2ef9qkNr8A76/3xjDgM1ljEsru8vzrO62Z35FrCqDw2a2ltc4VB1YseJww9byBnX3CJ7+HvTrxgX1A1CJP+SHsTXM/gUy2+8J2/Ksb2yxVwdsTr3sTgVQcDbmp5FB1EYb78T5aW4ZpjbJLPix5aZx3Jy8RBvvELv7A4/ma4wsvOf14B6RezcJpOtG3ev1/vTRUzbsfvyDVWK+B039L6Tt+dXdM64BctPcHJihMviK99sZFoYPWd/YoDXFGfolILSyQogEj364y4kpyGwGkxUrYLWa9GuJRPLlo2ma+NSS8iGwe8T4+Ljw2BGoUVE8FR4WhfZrX6otjaKIqgg1WjyVtlZeEh5Mwpc6at47SvmECY9YKveSflksuBCmYOZ02u3pJw9a9zLBtvRTYhyT8LzMiPKRHl5cCYnQyhm6nicpn0AJi21NE5q2LcIKwpfqMf8eyn+xbIqgCaG+LLTulReEC5MIbp6MW4yqp9quqxSjQjV0KUZVgWdJlI321MvYPf9iVBXgFSuN+j2hR1FEHQi7LykKB3odHG1GxXh0Uxx16qIdiYNyWax4ETjOLoeel0+kmve663dVKUZVgckhvOPjwuswdeTfJsWoUFFFtHhG2AWyGTQJ1JfN/t/q85vNseVZKp9uqxNjUJejg7Ior3gFOM7QIyV8tPXdTvlA/TXtSKx4Efaw3gZHK0Pn9sOL9TtbLq4fTRSjDoHdJ5KFA71PHW2K6HhUbBr9UdOMMXxeu7XJ0UFZlDfDQgUxfl49dUh5ySMw+UTyoHUvEzQZY0lr1nujfrq2wynpjN9xnRoXmDziZaZsjKmiWAmFxIpRvw39Us36OBIpX7t+UqRI+Vrl871pNHwa368sEI2OnN6acHm41XmvF/JZNujH3fxZD2bVTT8bZNu3T85NP092C7zewc4AnXyaDY5Ze3abGzdu6DIW55g9dqsAw7wpruBcf8bAd3309X3Ho0XwtL0J7cqwH181TiIP5BPEqz78jZ3Jbvn3Wv7zKOXYOIbduQet9AcibHFMde9Se7AXoKA0qkNRTh4U6DV/1YPrzJcT/Uz9ukmYGR7c/Ja+vm+4OZnD7dbf0mJsT4/e+Ya+vu+4PTBAJGeC445kzqNX/a6K4dP4/pcVoks/ck5v/ABK5PQC8KCh/40BIltwXG28jQWl1UCttmpQy7E4eodv+vr47vYAA5Ecpp4r8DowMxL0sRdfJk+dtfg6atDbmkOupF/3+umf+pXNMMw8uMm3fX18c3OSnNvdepPYlQqr0/e50dfHtzcHGHiqvwXttffk0xtwvMaz2w39bjAWP4a9Xapt8Vyes2e4KzP8huKKk/VnA3zX10ffd49YxENjistnN6C/vT7MqO5+2Mhe6OMpkUi+fD6f0WhgdU8wNWzTffeaPnuXpJImEknr2092FZUa1cO28MMqNVTU8/zGTmDFaoK9vXM2s2z9KChM/bLP/n5D/kLT/uCVEyBPYmYD99Lv7P+loR39QdK/y9gPYyR6Ltwwfl+VeCJPPhGn6vPT9Gbrlv9Vy2+zYQeG3vzRlv6faJrG+5GeV8UP58r5V0gvLlKf+o39PzU07U+2X9uYvzdAZAeoJ3h67xmFwV850P5if3+fTPjUT5bzubJ+l8T2mCm/E3MpwfR04hJb4Odhw6YXgD+a+u/zp6ahvR/p4ZMvdRJP7/GsMMivBxp/7e+znwmf/tH3sRmeIFiLsbiaIL6uEvQ2NLiqft3rp5JeZLE+xW9Gu/+5/Rrb/D0GIue5gNTJxyPE8/oEsBO5h2/RzKviEdqf++z/vsRQ5yMXYOtXQJnilzb99v/S0P549WkO0+QTzGy4Wfp9n780jaM/kvh3x/hhLEEdsKsq1KqcnIJqoKr0MgVJJJIvl89uNDao5N6y/DbXo9+RfuKutLsHwE78OXOxNfYAbo0QdFSZC8yyUwfqO8wG5qh6wvh7+uHtJvzKwdazh8zuGF5wuWlu9t1mdgdwhnjlqTIXiDQPX9TSo3zXCKdCenmeQGRVPzxhttKvqlipUb+Es/uw30c1PslkvIqv+Zqxh/yvWn7zCC+CFtYnx4g3nNd3Ytzp6+PJas9W74dz5fzr7C4v8/xpTC8/ZmxOJ3Yq1A6BWp0aYHeqxrcBa2ysX8Lp7sr6fSC7q8zPr3IJTc/BzMiLIJb1ScbijQNSO8Tu9NH3ZLWHH21GP7Y7UY2PK9Y21q9Br8sySGjKxlvfU9ZdIUZarxmvqF/3+qnvLrP8/CkxY34w25w47VCptZlJVism9tir6D6Ss5NzxI3v0x7WKmBTUW26iV7PrbPRerIrztArPNU5ApHGAbga6dHv6Ls9y3lm64dweKiXr7YaZ609oJJmeT5AZFXP3WztR1WtzbF1aySIozpHYHZHr6+dWQJzVTxh/zm7OxKJ5Kuhc7/648qRSHoRcI44/hfxP5vark0u4VLbr4MiY6R1kAkJFQQmkwBFjKfafPwOMiLkMAmwCAsIkyMkMgea0LSMCPaU/oHIhF1CAWGy6OkPRTfFQSP9o4JY8CqCtnDvUrv/kEkoCgIsQrHQEd6rbIqgBYElKDY7wy7M/6Ly9yoHIhVyCBMILBYBJuEIZfTyHyWFt7PdDBlaaWuDM6Wt/hVFKMZziqKXBVxioXxR/rpvWStPh3A52q9dYqGs++RZFEWASSiK6aT+miYKS149b4siTCAUh8PQxSSCmZM6n/ZpvEi/zvJeXgov7afqtSXjInXRGBpa6VmHg1RIOEyc6iOZoMlITzH68Mm2ci2UhVZYEt5G/zYhUBzCYcQ1BTOivOA6rRsI+8vCxXPAJfTXtIYvqaFT+/0u+p1K5ww5r360Rp+w6HViUvQ+dHqMFcTSkN4HTSBMrmjLR7I5Pk36/GByCEdjHnIt9OT3d1RYMMpoEhYTAsUrlgoN/+ZWnZpcLn2ebFz3WP7tl6oAhMWCwGRppmkJZXR/TZPRJyyKsNCWv/H8Qcaov2seH1KkSPm88sk/7i2RfE3oHyF2kNJ+brkISL4MKnHuf7/ISPk3Jjr9LiUSiURy7Xwx29MSyZdBjXw62/zu4t5uCVQ3amc0yWeixk56lVwFKmuLbLj8eKXBKJFIJJ8E+aZRImlnZ5bbjp+o+xYI2+JE5ncZSv3Bz8P/6P+O/AWRY/Kbe7y12bHvWQgV/oMp6SgnkUgknwRpNEokHdTyabKlOmCm3z2I0ziwIPkyqJeypPM1rM5hBvtl20gkEsmnQhqNEolEIpFIJJKuSJ9GiUQikUgkEklXpNEokUgkEolEIumKNBolEolEIpFIJF2RRqNEIpFIJBKJpCvSaJRIJBKJRCKRdEUajRKJRCKRSCSSrkijUSKRSCQSiUTSFWk0SiQSiUQikUi6Io1GiUQikUgkEklXpNEokUgkEolEIumKNBolEolEIpFIJF2RRqNEIpFIJBKJpCvSaJRIJBKJRCKRdEUajRKJRCKRSCSSrkijUSKRSCQSiUTSFWk0SiQSiUQikUi6Io1GiUQikUgkEklXpNEokUgkEolEIumKNBolEolEIpFIJF2RRqNEIpFIJBKJpCvSaJRIJBKJRCKRdEUajRKJRCKRSCSSrkijUSKRSCQSiUTSlf+kaZrovHkR9VKWdL7WeRsw0z84jNPaef/rpZZPk7cMMthv7gz6+NQr5LM5SnUw97tRybFnGmbw1mfQ5XNQ3yGbPUYddGIz18jn6zidts5YkjOo7aTJ7tb1C3M/g8NOvqRheVn96pU8uaqdwctOLvUS2ewhzi7pSyQSiaQ3Lv2mcXc9zvxzH77n86ytrRmyzMzYI8bipc7oXzFZpgce8eDJIp+8VDtx7t/4nvsza+ztbTBz/3t+GPDxbL3SGfODqe2kWc1fX3rXSS07yc1vHTwZG+D72w95ePNfDEyuffp2+ErZ20jo43J5hrFHY3xpw7JX/eqlVabv3+Db7wcYm81yorfWdkiv5k/e66ASH+PBowGm050hEolEIvkQLv2mESA92scjUmg/Dxt3SsRu/0A8WOQ/pvo7Yn/F1GvUsGL9pC/39LqMOJLs//xYf0OyM8ttx08QLfL7NdXv6Tb8cqhlF0mYR5hw18ktJsgpg/gfy7dFl6YU4/YPbwkWf+eaus310kW/0uITnu56eR0ewWnrGITpUfoeQUr7mfN7cJ1apY7ZZuWTDmGJRCL5m3J1o/Esw6qWJz4XI5FeZ8/qwaVU2XO+5tcfnc0o9VKaxfkE61k9jtf/grD/lmEY1CmlF5mPr5GtKgyOTPFiwo2VEonpGdI1sA6OMFRbJ5Gvgc3Lq1ePaWxeVlYjRN6mWd+z4nG5GQ6H8d/SUy4lpplJ69vrzonXeGtx5hN5atjwvnrFY1udXGySxbyRmHOCN1PujkXH0G8+TpZB/KEQE8P9HXFq5BZnSDBi6N4juUm+ubfBqxMLaYXEkwHiQ5v8MtF/Qf7d66eSjhBJVNjbWGYDD+Meu56FUU5yMSaNwluHw7xQt5iLZalgxT3xggm3lVpukZlYgvWNGvahQYb8YaYG27aO6yXSi/PE19bZqNkZcsIeQVbetdqolo8zF0uQzoNzOMiLF4/pN7fVverFb9sinq2A1c3EiwncRiV2zf9cekufhn6zcdJVhWH/j4T9lzRajTGQzm2xUbMz4g8TnnKz18jfOcGbKSf5E9cKa9MzpLFho0KlpuIdsbKRyFFT/bz+cRBzs31UBr1m8mt63x2cCuPv3L69yChrjtE8OIcJvnjB4x7cMOq95l/LE5+bJZ6uogz7+THsP+26cp5+pQTTM2n0UWpl+MVrRhrhlTSRSILK3gbLG+AZ96D3YCcTb6Zwm7s836RGPj5HLJ1ja6OGfcRPODzFoA2o5ViciZFY36BmH2JwyE94arDZdyUSieQfi6Zp4rKS8iHwrohyuSxWfAg8S6LcDN8UIQvCPr4ktotlUS4sCa8FgS/VSmM7LOwgXKGk2C6WRSZkF+AVySM9vBB1CLCL8WRBFLcXhNeCsIynxJF2JIqZpAi5EIBQvFGRySyJIRNCjRaN9AvipYpgaEkUywWRCnuEBYsIbuppHxRSIplcED5FTwNlSIRXosKrINSXBT3Odkokk0mx4FMEalQUO8qv6+cSoVRBFFIh4QLhiOrPNuVgSXhAgEcsHZyuw/OkGFUFSlhsnxHWkPPz76F+ypsimTTiuEIimUyKZDIpUtsHp8NBgCrGF1b0a5/eBkkvAntIZMpFsb00LuwgPEtlQ7+yWPIgLJ6wSBXKolzMiLCDE/V4kPIJCxbhiWZEsZASQQcChx5+sJ3S6x1Dv0xKhNT2/tMt/4ule/oN/RThXdgWhe0F4VUQFl9KHJyR3plSXhFei1H/hbIoLg0JUMXLQlv+Rn2cvD4QhSWfUEBYvFER9iDAIrwLL8UQighva0I72BapBT0OFo8IpzLNPu5LGW3YkGJUqKgiWuzQ7yAlfBaExRMVmWJBpIIOAY7T8c6SXvI30le8C2K7sC0WvIrA4hOpznFwnn5HRZFJJkUyqfdtX6o9vCw2k0mRDLn0MWD032Rqu9U+Fz6vp7HitQgUr4hmCqJcXBJDtMb/UdIrwC5CmbIobi+JcXvnHCdFihQp/0z5cKPR7hHj4+PCYz9pEGhaSoxjEp6XGVE2jMDiSkiEVhpGXVksuBCmYOZUupqmCa28JDyYhC/ZtgBmgsKERyyV2/MPi0K7Pu1GaUOODkS5vCnCKoLx9vCiiKoITD6R7FzI2qQYVU8bjQ39UkfNe0cp3wn9mvcLGZEptOL1Imfm2S495N9L/Zx171S4Yeh0hrXkSByUy2LF2zL6NK0oog6E3ZcUhQNdx6PNqBiPboojTROatimCptYCrWma0MoLwoWpadgXo6oAr1hp9J9z6+Ss/LvLxenrP3paP0Iaxo1FhAz9ukkmaBK4Fs41MjrLc+K6GBWq0ZbFqGoYK3p/bRo/xahQMYlgppXmdth+os1b8U4bZZtBk0B92Ra3MSY3T+l6pnTJfzNk6WgvXX9LqCP9c/RrSUr4zjT6NKGlfAJ8ItV5v5fnM0FhwiUWOsbrWXJ0UBblFW/vRrUUKVKk/I3l0gdhmrjCvHv3jvcrC0SjI7R2f4Z5U1zBuf6Mge/66Ov7jkeL4HE1NnfyZLfA6x1sPnGCfJoNjll7dpsbN27oMhbnmD12q23xXB5utV22U1md5v6NPvq+vcnAwFPiFcA4rHmCET+PO7fMupHPskE/brW1lWdW3fSzQbaxpd24f2vw0qedzVYFdvPsdgY06DX/C+qnZxxBRs5IpJZbZPTON/T1fcftgQEiORMcN0L7mfp1kzAzPLj5LX1933BzMofbrerb96UcG8ewO/eg1b4DEbY4prrX1kiqB9c5VXdx/j1yXvqlHNlDcKht+5n9Kg4OyebOObFxghL5jWPUkaErbGcqKI2HFeWcdPpRDc8CAKfHBXs5ti46GQJAiZzeADxo1P+NASJbcFzdO3OYnM15+ZfI6RXYNif0ozrgMJv7Ig4zlfIbHKsjDJ1dsfr29Ogdvunr47vbAwxEcpgu3cEkEonk78eHG40GVvcEU8M26rkYgViOOnkSMxu4l35n/y8N7egPkv5dxn4YI1EHsGI1wd7eOaubrR8Fhalf9tnfb8hfaNofvGq5RJ7PToR7vkXMr4ocaX+yv/87S0OdkXRUp9p5qzt2FZUa1cO2e4dVaqgnFtEPxTY0gosEa9n2uyVit/u4HSt9nPzreeKROPlOi0FtX/gN6gme3ntGYfBXDrS/2N/fJxNuj1UhvbhIfeo39v/U0LQ/2X5tY/7eAJEdwGbDDgy9+aOtff9E0zTej5xlxXXQNf8r0m9HBQ4P2yqjfsghoNp7yceMVYHS7l5nwDVTOvEjqn54CNhbxua52LDpDcAfzfrf509NQ3s/cokDI+fl349dr8A2A7TOoV6Bp/vTtVAnH48QP9WBz8asNxBnt1CdxNN7PCsM8uuBxl/7++xnwh9Jb4lEIvm6uLLR2KCSe8vy2xwVKqSX5wlEVnVHdLOVflXFSo16DcBN+JWDrWcPmd3RJ/l6bpqbfbeZ3QGcIV55qswFIuSMz0HW0qN81wjvxmGNCjZU1aYvgPUc6xudka7ArRGCjipzgVl26kB9h9nAHFVPGP+Jt3J5Zu98wze3Z+l4AXkxNj8vxs28fTLKaqP82Tnmdy143P2XyP9irLrlTgWopWeZnItz5uc3O6nVqQF2p2ocDKmxsd7+XrTO7vIyz5/GdP0wY3M6sVOhdgiYR3gRtLA+OUa8ZCzyOzHu9PXxZLWHRb9r/ldlGP+4hfXJgFH/NVYDk6xbgkw97ox7FjZGwuOY3z5htNmAcR52lq9WRbf7d0i8/RD9j4nHjDFWWyUwuY4lOHHBSeIGZkZeBLGsTzIWLxmG3Q6xO330PVm9xJvG8/Mf9o9jWZ8kYJS/thpgct1CsLcK7A2rFRN77OkdmNnJOeI9dWCwjYQZN7/lyaihPzXiDxvlN+YpuxO1cfBqY/38N/8SiUTyT6Jzv/piMQ4hcI44oqKopYQPk1AU3YlfsSBAEd6l9oMiByITdgkFhMliEqCIoehmmyN7QXeebwvXn8+IoKktP5NLuNT266DIaAciE3IIEwiTYhFgEg6HasRxif911HRa7xP+Zx15NKV1UEc7yIiQwyTAIiwgTI6QyJzyjdwUIQWBJSg2T9VjNymLFZ8iwCQUxaif9vo7N/9e6sdIo7AkhhQEJpMAk3AZB3nKC67TZW9/TtNEYclrHIRQhAmE4nDo15hEMGP4rynt+puEI5RpO0hyIFJGG2Ex2iiUEQeGb10rb4dwOdqvdT+0i/PvrMuT9dpL+ppWEEteXX+LCYHiFUsX+naelsKKT6jN8iHU8WSrj5VXhFdBYLIIEwiLpaXPYKP9FMUoE0JRjIM7Df0Mn0Kl2X7t6V8wRodWmm1wkAoJh4kz+lAPcmH+RvmNNjo5fnvT78w+CMLe7gerFcTSkN5GJhAmV7Tpo9nT84UV4VNb5UcdF8mGj2NhSW8fLEIxIVAcwmEcnDvXF1uKFClS/gHyQZ/ckXwi6jUqNbDK78xJ2jnvUzWfis+dv0QikUg+C9e2PS35CJit2KTBKJFIJBKJ5AtAGo0SyVdEPR9n+nmcEiXiz6d7PvxxXXzu/CUSiUTy+ZDb0xLJ10Qlx2qu9eUBm/sx7q4npq+Rz52/RCKRSD4b0miUSCQSiUQikXRFbk9LJBKJRCKRSLoijUaJRCKRSCQSSVek0SiRSCQSiUQi6Yo0GiUSiUQikUgkXfk/vXjx4v/RefNjUsunSef+O7u7u+zu7lLFhu2/mPnPnRF7ok4p+/8hm9+lau6n3/phqXyp1PJpcvV/+9uV62rU2Emn+d/+u95/9o5t/Ffbl/kly3opy7/vWTv0ux79aztp0v/t/8D2X/8zpXSa//Z/2Piv/+Xy6XxW6hXy//7v5P57Ffr7+S9fSTev7aRJ/2/GHLZ3jO2/Gv+y9GuikmP13/8H1lv/xv+eW+Xf/4eVW//2f+6MJfmI1Ct5/v2/1fi3/v/Cf66XyP//wHZtY7hCbvXf+R/WW/zb/95q6+4tfF1r6ofmL/nS+cRvGuvsZt8yM+ZjbGaZtbUEMw/+xbff3Sfey/+VPkWFrbU15p/7eBDJdgZ+5WSZHnjEgyeLlDqD/tHssZFYY21tjeWZMR6Nxb/Q+qkQH3vAo4Fp0ifuX4/+uZlH+B7NkCPHzCMfj2ZynVG+aGqrAW58+z1j82usvX2G49s7xD6kIj4DexsJ1tbWWFueYezRGPGvRO92Somn+HxPSZRKJJ768D1NfFA//HKpkFvNsvOFfkZ0J36fG9/fZeyhgxt3H3L3xg88nMtd4n+/d6GU4KnPx9NEqa2tOyOdxTWtqR+cv+RL5xMbjWbcU1H8/dDvj/Lu3c/8un9AcijH00cRLm839jPy+h1hV+f9vwODvDs64OC3KeR/amvHycS7d7x7946o/0uuGRsTvx5QPnjD8In716i/yYoVK1ZTZ8AXzk6M+74tRjYPyARtVOsWHEqByNwVFqlPiHNCb793Uf9XPjYVrGYzVqXz/t+AUoKnvmestz4p+mVh9rJU/JM/9wssjQzhf1/kj3fD1/7GWrGaMV+qga93Tb18/pIvnU9sNJ6FlcevXqHuxZg3XpZUViMEHt7hxu37jAYixHdqHc/UyMcjBAIBAtOLrB92BFOnlI4x/fAOdx5OE0uXLvkLrs5OOsZ0IEAgEGF1dZHAdIISJRLTAQKBANOJEpy6bj1fSseYHr3PnfujTC/m6CzB+dTJxfQ0A5PTTC+2//psyy+eJh2b1uNFVjk5N1bINsMWWYw85M6N29yfzVHLxfT7gQDTiR1q+TiRQIBAYJrFXEtL/f5D7tx5SCCySqm9Ausl0rFpRu/f5sadhwQCD7kfOKlDLR8nYpQ/Es9fovw6F+Z/DZydvlG/0xEi0wECgVlW04t6P5jNNstQyy0yPXqf2zfu8DAwTSx7svZLCaPuJ6eJzKx9lDc4dqcK/SoKCmo/qE47APVm+86ymj3dtq3wGLn66esmtTzxSICHd+7wMBBhtdEApYQxLgKnxkQgMN16m1DLE4+Mcv/OfUYjcfJtHSA985zd4AKviHDbl8YZfsGwAscbudYPx/Pyr+eINfIPxMjlO/UBajkWp0e5f/sGdx4GmI5lm31Tb5tpIhG9jWZX0ywabZ2tnay/+GprDoi3F6AXztO/Z4w5JGCM3dGOedAYgw/v3OHhdIy0kX5D/0hEnx+n42lWI0bbtP0q77c7AAXFZkNRAIe9RwN4p629Y+TqbfNVIEDsRCe6iA8rX6v/TRNPp4kZukRWGy2cZzEQIND8r0WdfbO9v8bI1fR8AoGT82jXNajZvje4fX+UwOh97s/m2yKctwbo+c+l82xsZEnH37KWz5NbPzlHds2/G/12HICi2LDpDYy9rYF7Sv9QL2MgEGA6lj41B9dLev036iAS32mVoUv+kq8YTdPEp5WiiKoINVpsu7ctwkrjXkG8VBEMLYliuSBSYY+wYBHBzUbcgog6ENjHxdL2tkiO2wUg8KWa6RWiDgEuEUoVRCEVEi4QjmjhDF3OkgOR8lkEFo8IJzMis+AVFhDgEyntSBQzSRFyNfLrvG7P3y7GkwVR3F4QXgvCMp4SR6fyOlsOtlMimUyKBZ8iUKOi2Axryw+E4o2KTGZJDJna6/NArAzp9ZPczoiXHpMAr4gu+IRnPCXK5U2RTLbSAFWML6w0y3CkaeIg5RMWLMITzYhiISWCDgSOhh5lseRBWDxhkSqURbmYEWEHJ/TUn1eEd2FbFLYXhFdBWHwpcXBGWc+Si/NvSTGqdtRPb3J++geisOQTCgiLNyrCHgRYhHfhpRhCEeFtTWjakUh6EdhDIlMuiu2lcWEH4VkqN9M/KmZEMpkUyZDL6DenddCuoL/+rEPgWRJloz0cjfY/2BapBb0M4BKhZEakQmpLj2a4KqLFM641TWgHKeGzICyeqMgUCyIVdAhw6OFHRZFZ8Ak7qhhfKYgD7UAUVsaFil34FjZFue15xbsgtgvbYsGrCCw+kTrQhKZtiqDJJIKbmkiNI5Twtp5nytem4wX5awdiO7Wit5lnQRSPtkXIrrdXMlUQB5omjpJeAXYRypRFcXtJjNsx6koTB4Ul4VMQWLwiGvYIQFi8C+LlkKFLe/1ZPCKcyjTnIF/q4GQ7FKNCba+3hlyof2+yHbYb7bctiuWMCNkReJPGHGLMga6QSBUKIhVy6ekXNKGVN42x7RDBqE/YQeAIi4WgXTC00pqDUuMCU1BsaprYDJoE463562I5EIXUSzFkQjhCGVHWNFHefCmGQHjCKVE46Ix/tnxw+Y6KIpPU53RQhDeaEZmlIWFqtsOBKKSSIrngEwqK8C0k9bGYzIjiUWe4MY8OhcVK1CsUVPGyoOd/8Rq0KUIWhH18SWwXy6JcWBJeS69rQC9zeLf8e5GUGEcfZ9pmUJgYb5uHuqef8un62ceXRCZjjCFHVBQaaWyHhR2EK5QU28WyyITsArwiedRL/lK+ZvlCjMaz7mlCOzoQ5fKmCKs0J7WjFa+AIbHSnJzKYqHdaCsvCQ8m4UsdNdM5SvmECY9YKnfqcoZkgm0TkC6bIeXE4p/ynZwgTlw38k+2LTCZYO/5t8l5RkXKh8Aebg7g0/kjfEkjfuHlmQubPik0Jsl22RRBE0J92WZklxeEqzEBaEURdSDsvqQoHOh1fLQZFePRTWPC1yfUE21ZjAoViwj1NOl1y78l59XPxdIl/WJUqEZbFaOqYWzo/dOX6kzrSByUy2LFe7ZRe8IQOkM+TP8epBgVKgjvijEGOo2bLtebQZNAfdlaIIwxZgpuGtd6fQwZ6R+tDJ0ox2bI0lEuPb4ltCk0LSV8qCJaPBIr3rZ+UowK1air7vk3DDOL8Aw5BPaw2G7GPSlHB2VRXvG2GW26Lp6l8um2boyhYlSomEQw00pnO2w/MeZa8U6PrZ70v0ga/bEt/3YpL3kEJp9INRfoI5HymZqGccrXyCslfI1+nfJda18rhO0Cr2GEboeFckE/PyVXLJ9eLoQ93BjD+vWJ8XlO25wMR5h8yYt/zJ6xBjUMIs/LjCgbOhZXQiK0YvTlHtaAC+fwrvlfo5yTfsqHwLVg1LcmtIMVMdScUxr9OXM6PSl/e/kCtqcBquyWoOGaVVmd5v6NPvq+vcnAwFPiFWjs0eazaVCHcFkbz9qw6ztzjQhs0I9bbXmHmFU3/WyQbd89OIdSfoNjNYi37VW6e8jTHuVi8mk2OGbt2W1u3Lihy1icY/bYrXZGvgIuD7c67wHYFBRgr6pvtNR285RQsJ7lLOMIMtKZSCnHxjHszj1o6T8QYYtjqnt1oJ+pXzcJM8ODm9/S1/cNNydzuN2q7o9TypE9BIfaVoH9Kg4OyeZ62Kjtmv8V6Sl9BaXx/5QVhc5/rVzLLTJ65xv6+r7j9sAAkZwJjjsifXZUPK6zGr0bJXJ6BfGgUT83BohswXF1zxiG/XiDKuvxNerUWYuvowa9xvZmiZzeAdq2O/tRHXCYzVHCjlPdJZc3Y1dM7G5sUQcq6wl2HW7UnvIHrMP8/Iuf/PoeoZVXOJt5GdvTo3f4pq+P724PMBDJYepoIKXVwK22PkE/atu84vS4YC/HVlcfuR71v4h8li28eAc7A3Ty2Q3od9Oa4syo7n7YyNKY4vrVhh9ZP80/r5FbwRDqWpy1OuQTcao+f4fv7gVcQ/kAXJ7OyevyjPgf01xK2rhoDYJh3hRXcK4/Y+C7Pvr6vuPRInhcRkfqdQ04bw7vmv/V6Sl9u70191ldDKmQzuaBPNkt8J7XgJK/NV+G0ZiNEz+2MzzUDzsR7vkWMb8qcqT9yf7+7ywNtaIqaj/UqrTcGCtU2weiXUWlRrXdz/GwSg31xCJwHmarAqVd9truVfbar7pg60dBYeqXffb3G/IXmvYHr06sbB8LJ8Me2Hr2Pd/duMENXxJndAH/WQuj2r6wG9hs2IGhN3+06f8nmqbxfsQMVEgvLlKf+o39PzU07U+2X9uYvzdAZEf3ZVGBw8O2Gah+yCGg9uLU0jX/K3LV9OsJnt57RmHwVw60v9jf3ycT7qFcXw02bHoF8Uezfvb5U9PQ3o80HfX7vUHU9ThrlTXi6yrB5q+sfux6B2hbg+oc6h2Afm7h9dpJvk2gvniDZ22MgYcPufdsl/FXE/T3mD/sEJucx+6yMx+Jt/nT1kk8vcezwiC/Hmj8tb/PfiZ8up93pXRiga8fHgL2cwzMdnrV/wKsVkzssXeOgWpX1Y45EA6rNVBVepjirof+EUKudWLxVRLxKj5/zybjZylfJR0hku7MUMWpdtyCrmsQ5EnMbOBe+p39vzS0oz9I+ncZ+2GMRP0a1oCu+V+RXtOvVtvG1SF6EyhgHL7bO68BJX9rPrvRWK+sMvrkLcfeV4RvAYc1KthQVePbZ/Uc6xut+P3eII7qHNOLxpu09DTTbeHcGiHoqDIXmNU/t1DfYTYwR9UTxn/ez7o2bN4Jho7fMj27oy96tVWmI1ud0VqLYm2V+FrbfWeIV54qc4EIjXMltfQo3/XdZvbyx8M/gD1yOfCtHPD79jb7Rxq/TfVQ8AbmEV4ELaxPjhFveD7vxLjT18eT1TpQZ3d5medPY8bnLMzYnE7sVKgdAgzjH7ewPhlgtQZQYzUwybolyNTjEzmdTdf8r8hV06/VqRkHUfQ3FDU21nc7Y30FtH5Y7STe0iqBmZEXQSzrk4zFGwfIdojd6aPvyWrLEOz3ElTXiT2Jsd7xZn7YP45lfZKA3gGorQaYXLcQNDrArRcLjOfGuD+vsnJQYCHo58VLP6yvUeox/3zkERE1ya+//cIST3kYawyuGnW9gVCNV0i1jfW28vXKMfHYqu7YX1slMLmOJTjRw9u03vQHID/LnW++4faJAxSAO8wrxxbPHhpzGHVy0zfpuz3LDnBrRJ8DA8YcVd+ZJTBXxRP2n/vm6vqx4Z/ysvXMx1wtyET3imnxKcpntqJQYncPYIf48zliaz3++O+yBkGF9PI8gYjRP8xW+lUVa6PvXXUN6Jr/Fek1/Y054voiys5sgLmqh6mRfsBN+JWDrWcPmTW+aVTPTXOz1/JJvm4696s/rhj+h4YDckMU71Kb/8+ByIQcwgTCpFgEmITDoRpxXWKhrImDTEg4TAhMJgGqcNiNtCwhkdE0oR1kRMhhEmARFhAmR0hkenTQ1jRNHGxGxZDSSN8kHKr9pG/a9kuhgsCi62cxdeR/VNCd/0GYLCbdYXup14M4GRFspHdCvCJ51BFmcgmX2n4dFJmGk3PbsyZFFZ5QUndaX3CdTtsU1PVuyoFIGW3QKKMjlDF8fwz/NEURYBKKYtRRM1wTmlYQS1493GJCoHjF0infyYvkgvyPksLbqb8hQysdBxXOlfPSb6tfRWk5yit6Wzb6X2HJaxyUUIQJhOJwGHFNIpg5u4+DXfcfvRb9z5fO9nW4HCeuXQtloWllsdLePhZLM7xxoOcgZYyxC8ZQeUk/SNJ+CKghjTo6t/8fbIpouw4mhxhPttI5N/9CVDia5fGJ1EF7fertoxWWhFfRn1VMCBSHcCh6nP/p//I/GXEVoRj32tvatdDwdTTp4SaTAIQ6ro+f5kGoM9qPoZXmGDhX//Y62Azph67O8nU8yIiwq30MDYnoZqt/NOfAjvHRav/G2ERgUvR64Lr90PTx8kFpfmD5dN/AVp2bXC59Lm5cN3U5EJmQvm6YTAiUceMg1tnzqz4uGvp1W4N0X1G9/1iEYuF0Hz93DehlDu+W/xn1eSnpnn5qvDUu9Po72T6adiAyYdeJMT4U3bzYP1TK30L+k6ZpotOQlHSQHqXvEaS0n3t40/B52YncxJEOUvjtR2419sLqeWbvDvB2uMAfr3r+rS6R/DMpxbj9w1uCxd+Zuvy+9j+IHJPf3Idf/uKNdG+TSP4RfPbtacn1slfZQxkcbBmMAGYng4MKe5Uet2ckEonkHCq5VdI7Nd0XHT8j0mCUSP4xSKOxC5V0hMDcFrDFXCDCKV/qL4zh8BJq/B437o4SWVxldTHC6N0b3IurLIW/9PekEsnnpZ6PM938MPQ08XwPfq7/KCqsR3w8Ghjg5pME3vevkDajRPLPQW5Pd6G2kya721g4zKiDw9w66xsNXxR1drJpdhuf57eqDA/e6u3kpkTyT6aSYzXX+mVocz/G3fXE9D+MWp50tgT9gww7v/jJUCKRXCPSaJRIJBKJRCKRdEVuT0skEolEIpFIuiKNRolEIpFIJBJJV6TRKJFIJBKJRCLpijQaJRKJRCKRSCRd+XwHYeoV8tkcpTqY+92o5NgzDTN44gODH5s6pWyafA2szmEG+z9l3tdFnZ1sDrN7kE+jfo2ddJbGgXLzlU5Qtk55fzn1f53lu5h6KUv20PnR0ofWSde6uZ/BYafxrw+/EuolstlDnF+b3hKJRPI35fO8adyJc//G99yfWWNvb4OZ+9/zw4CPZ+uf+iOIFbbW1ph/7uNBJNsZ+IVTI7c4yp1vvsXx4BmJy/9z3Q9kj43EGmtrayzPjPFoLE6pM0pPlIjd+RbH07e8fe7jwQ+TfBktcF3l60aF+NgDHg1Mk+4Mukbqu1kSyzOMPRoj/nEK8tGoxMd48GiA6Q+poNoO6dU8n3pGkUgkkr8zn+FNY4nY7R+IOJLs//xYf4OwM8ttx08QLfL7Z/i/XenRPh6RQvv5K/r4dT3N5MM4avgFE8Of5xuMpdhtfngbpPj7FJduNeNftY0XfufHW3VqNbBaP0cpzudK5euFeo1K3YztY5f7q/23eHVqlTpmm/Xy/fsr+tefEolE8rXw6Y3G3CTf3Nvg1YkFrELiyQDxof83/t3/F+kaWIdf8HoEEtMzbdf6A5XVCJG3adb3rHhcbobDYfy3rECpFX9whKHaOol8DWxeXr16TOsbvTXy8Tli2QpY3Vh3nzFvaTca65TSi8zPx8kyiD8UYmK4/xILl/F8fI1sVWFwZIoXE26sXfWrk4tNspjXU3FOvGGCRSZbN3gz5STfFke/5+7Q7ar6Qy0fZy6WIJ0H53CQFy8en9r+/iCjqpRgeiZN7TBPYm0X1TuC03KyfWnkPxsnXVUY9v9I2K9vUdZzsWZ9WIfDvFC3mItlqWDFPfF/x5r4f5LGho0KlZqKd8TKRiJHTfXz+kc3u42666zLM+rxvPLVcovMxBKsb9SwDw0y5A8zNaj3rov1e8GE20opMc1M2vjyunWYF69HTtXfeeXvlXopzeJ8gnwNbCqs/bR10mis5YnPxUjoDUzwxQsedzbwWdRzxCYXyaPrHn6hsjUXQx9KE0Y/755+bSfO3JxeL063nXziLes1B6/f/8wIRh8BwMrwi9e0dY0T40tvAyfsQXDlHY9JE4kkqOxtsLwBnnEPdgCcTLyZws1l9J8lnq6iDPv5MeznY3oRSCQSydfAJ9+eLuU2OFa8DJ5YBGyMvN/nl4k7uLxerLvLzK/uAraOa4Ad4j/NscwUm5kF/LYc046bTOb0dJrxnz7i6YYdv3+QaszHg1hjb26H2J1/MTBTYXBqCm9tjvn1liYAO7G7/PAoAaEVVkKQePQDd2M7JyNdgP78PLWRBd6/HmQvco+bgTT1rvqZUQdHsO0ts1xVcdvNmO1u1Ooyy3s2RoZUzEYcr9eLu77O8tvcqS24q+pfS49yc2CanDPM+5UQ5rSPH+7Grmeb1upgyOvFO6RixYo65MXr9eJ1tZn06VFuDkTYHXzNyutBdiMD3BzVjQiz3Y23UYdjDv41MEfFPYx1d55nsT+45ayzPj/H4p4T295P+B5F2HOrVH8aYy6v112r3jqve6FOdu4Z81tOFrbf82qwxvyD77kf15++WL8cdcDmMsps3WV5fpVOz4KLyt8LtfQoN34YY808wpTfSW5u+WQetTSjNweYzjkJv18hZE7j++EuzSFyEWY77qbuYzj+NcBcxc2wdZf5ZzFy9R7Sz0cYcEyTc/qZ8laYf/acLXcYv7VK5RCwufT68VrZXZ6nOfQNKvGH/DC2htm/QGb7PWFbnvWNLfbqgM2pP+tUAAWn16jrkUFU8+X0j+wO8nrlNYO7EQZujtKw8yUSieQfi6Zp4lNKMaoK1KgonhHWkJQPgS917nVTjg5EubwpwiqC8Y749rAonPH80YpXwJBYOWikUxYLrrb0y0vCg0n4UkfN9I5SPmHCI5bKp3U9JY3nkwete5ngiecv0k/TNKGlfAIlLLY1TWjatggrCF/qdF5n1uVV9dc2RdCEUF8W2tJcEC5MIrjZQ/69SjEqVFQRLXaGbYqQBaFGix1xLSLUln/KhwBVvCycla5e1mJUFXiWRFkriqjaqsNOvTuvG3Le/ZYciYNyWax4EThOxjtXv3ZJ+QT4ROrE/d7Kf74URNiOsIe3W/cyQWFqq+vNoEmgvmz2v8YYMAU3z0jvHEn5BHT0E0O6pd8Znuzs/01JCR+n+34x6hDYfSJZOBBHmia0o00RHY+KzaNO/TrrtjP8HP1Dlo521/uPJXSJ+pEiRYqUv6F88jeNZqsCu/lTb1cuQ2V1mvs3+uj79iYDA0+JV4DGv4du4PJwq+MWQD6bBnUIV3OryYZd379qRGCDftxqayvNrLrpZ4NsY0v4IvJpNjhm7dltbty4octYnGP22K22xTtHPwCG/fiqcRJ5IJ8gXvXh79Ux66r6l3JsHMPu3IOW/gMRtjimutdZyR+BUo7sITjUtlfR/SoODsnmOl6FOYKMnFmJCkrjxaWitLklXA+13CKjd76hr+87bg8MEMmZ4Lgz1kX6XcBlyn8WlS1ye+DyOFv37Grb9neJnN7APGi0740BIltwXN07NYwuxkHwVAG7p6+o/VDaQx8OO+wWwGTtfe+3f+pXNsMw8+Am3/b18c3NSXJut/4m8VKco7/eAG111o/qgMNs7nretkskEslXyic3Gm1DI7hIsHbiqGyJ2O0+bveyP7YT4Z5vEfOrIkfan+zv/87SUGek81HUfqhVOWzeqVBtN+bsKio1qq0IcFilhorablyeh60fBYWpX/bZ32/IX2jaH7xqW8cvZhi/r0o8kSefiFP1+Xt35r+y/jbswNCbP9r0/xNN03g/culV+fL021GBw8M286V+yCGg2js8/9T2hf0TUU/w9N4zCoO/cqD9xf7+PpnwOVp8iH6XKf9Z2BSUzueru23Gjg2b3sD80Wzfff7UNLT3I5fyewWVdttWp3v6/W4PpuO3PPjmBje+c/BTbZz3r9ydCZ1LJb3IYn2K34x++ef2a2zz9xiInOeCUScfjxDPd5rEZ+nfj11vgDYDus6h3gCXb0+JRCL5G/HJjUZsfl6Mm3n7ZJRVw0eolp1jfteCx902JTcm7doq8bXWbQ5rVLChqjZ9gavnWN9oC+9CvzeIozrH9KLug1ZLTzPd/vytEYKOKnOBWXbqQH2H2cAcVU8Yf+dLibNwhnjlqTIXiJBrlC89ynd9t5k9b007g2G/j2p8ksl4FV/PrxmvQX/zCC+CFtYnx4iXjGVzJ8advj6erHYuuh+DYfzjFtYnA0b/qLEamGTdEmTqcWfcK9D84bBD4u0l3nvX6tQAu1M1DqbU2Fi/xPNduWr5B/XnI9Nka+g+vJNv216Emhl5EcSyPslYvGQYRjvE7vTR92T1km8az6J7+pXdXY7Vl2zvb7P9+wFH++8Y7v1FI/XdZZafPyW2o6dutjlx2qFSa/ulZLViYo+9iu6jODs5Rzzfm1PisH8cy/okAWOCqq0GmFy3EOytASQSieTvS+d+9aeRsljxKQJMQlFMAhQxtNTmW7T9UqggsFgEmITFhAAElpDIaAciE3IIEwiTooc7HKoezi1xtxEXBCaXcKnt10GR0TRxkAkJhwmBySRAFQ57e/qa0A4yIuQwCbAICwiTIyQyTR/IHuSoIBa8igCEyaKXz7tUEJqWEcEe9NPT2RRBCwJLUGyeSL8jjaZ4RbLh03VV/bUDkTLquNEGjlBGHGia0I6Swnsqb12GVtr8OM+TTFBP94SYRDDTHq8glrx6/7CYEChesWT4BpYXXKfybdVbW90oilCMcEXR2wJcYqGsCa28IrwKApNFmEBYLI20PGKp2L18hSWvnrZFESYQisNh5GUSo//rRfppLR/azjjY2/wfzy9/b9J6XtdPFRYjH89SWWiaJg5Sxhi4bB8pLwjXKd072+/i9A+Svo4+YBGKwycWNvX6PbONQdgN/8NiVBVY9PY1KXobnNa/IJaGWnVgckV1H8oe9W+08cnxe0Z9SJEiRco/SD79J3faqdeo1MD6Id9hk0gkXx/1BE++ncSU/IOfHzdeL9aprAa47TvmzdF7PoUXhEQikUguz6ffnm7HbMUmDUaJ5J9DpUIJN8OD7fvRZmyDw7gpUentu0cSiUQi+Qx83jeNEonkH0aN7OQAD96aGQoF8XtsVDbivJ1fpx7MsP1m8FIfMZdIJBLJp0MajRKJ5JNTr+TJ5hoHZcz0uwdx2uSeg0QikXzJSKNRIpFIJBKJRNKVz+vTKJFIJBKJRCL5KpBGo0QikUgkEomkK9JolEgkEolEIpF0RRqNEolEIpFIJJKufPKDMPVSlvSZ/87LTP/gME75vY0vnBo76Sy7xv+bM/cPMvw3brR6KUsON4P913myV6/DPfsgw7YK6ewe9sFhblmBWp50tu1UsRwTH4k6O9ksx6p+aruWz1N3OrF1RpOcppJjNdf4oKYV5/Ag1zo8Pnb6XxG1fJq8ZfCD55+rPv/hVMit5sD9GDc59D/dcnz9Dfjkbxp31+PMP/fhez7P2tqaIcvMjD1iLF7qjH4uldwqWeN/z0o+JXtsJPR2W54Z49FYnN5b7WujxOKTBzwYiJDrDLoSOWYe+Xg0k4PcDI98j5gxMqjvZknMP8fne878WoJswzr/2qjtkF7N80V+q7uWZfLmtziejDHw/W0ePrzJvwYmWfv7duRrpZJvzNvzPPc9IJLtjHE1Pnb6Xw9Zpgce8eDJ4gfOsRc//1HX0FKCpz4fTxMlSomn+HxPSZylhOSr45O/aQRIj/bxiBTaz8PGnRKx2z8QDxb5j6n+jthnocd/Gyzye0/xJR+DUuw2P7wNUvx9ir9tK9Rr1LBivdYf6mlG+x6xFtzkL3+cb+69xZvSaA6H9Ch9jyCl/Uzj1lfHl1yGWpbFhJmRCTf13CKJnMKg/7F8o3tp9H5Me9+9Vj52+l8BV51/zn3+I6+hpRi3f3iOslRmhTG+f1olWvydj5GV5NPy+Y3GE526RGJ6hnQNrIMjDNXWSeRrYPPy6tVjbEB+MUAsd0g+scau6mXEaQHAOvyC1yONHlmnlF5kfj5OlkH8oRATw/2Ye0i/Qb2UZnE+wXp2nT2rB6//BWH/LeO/VRjpx9fIVhUGR6Z4MeFu/SeLWp74XIxEWn/WpVTZc77m1x+dbTmcRZ1cbJLFvH7lnHjDBItMtm7wZsqNuVv+55a/d2r5OHOxBOk8OIeDvHjx+NQW0eWNRqP+sWGjQqWm4h2xspHIUVP9vP6x9d9Azs6/rX5UL37bFvFsBaxuJl5M4G7+K+MS6cV54mvrbNTsDDlhjyAr7/Q2ruUWmYklWN+oYR8aZMgfZmqwvfVb/QSADt04V7+2CBeyw+xtB8vBIr9717j9w1vGC7/z4y0juJvBVcuxOBMjsb5BzT7E4JCf8NTgJbd+auTjc8TSObY2athH/ITDUzSroZYnPjdLPF1FGfbzY9iP0wr1XMzojypev42teJYKVtwTL5hwW6GSJhJJUNnbYHkDPOMe7AA4mXgzhZscsclF8gDWYcIvVLbmYujNOKH3467la/V/vQ2dsAfBlXc8PqF/jITeQARfvOBxv7m7/lytfntKn1YfnY9nYdBPKDTBcO8dqFUHiXWy63tYPV78L8L4zetMz6SpYWX4xWtGSJy49lZ1/Ww2G5VKBevgCJ7dBGsVK8Ph14yYW/HdXid7a7r+zpGz5pALjLrmGMxSVQYZmeoof090T/+8+muOz/U9rB4XSnUP5+tf6ToFA6XENDPG4HdOvMZbizOfyFPDhvfVK6OPdZ+Dd9KLvG0857WztmHlxWsXW401aPgFr0dorUnNNezkOtCa99u4cI25+PmrraEGF+YPsMpon09vO/T5LKn9zOPG85KvF03TxKeWlA+Bd0WUy2Wx4kPgWRJlTROadiSKmaQIuRCAULxRkcksiSETQo0WhaZp4qCQEsnkgvApCMW3IJLJpEgmkyJTPGqmX4g6BLhEKFUQhVRIuEA4ooWe0tc0TWjbYWEH4QolxXaxLDIhuwCvSB61p28X48mCKG4vCK8FYRlPiSNNE5q2KUIWhH18SWwXy6JcWBJeCwJf6lQ9nCUH2ykR9iAYeik2y5rQypvi5RACT1ikCgc95H9R+U/nd5YcpHzCgkV4ohlRLKRE0IHAERXFjnjFqCpQT98/Xw5EYcknFBAWb1QvJxbhXXgphlBEeLt7/gfbKbHgUwQgcIVEMpMSIbW9fstiyYOweMIiVSiLcjEjwg7a9DwSSS8Ce0hkykWxvTQu7CA8S+WTeqb0fqXn5ROptnJcpN/pMp8lRRF1GHmWl4QHh4gW28JTvlN5tstR0ivALkKZsihuL4lxe/sY6kXKYsVrESheEc0URLm4JIZAqC+NPnKQEj4LQvEuiO3CtljwKgKLT6QONKEdbIvUgt6G4BKhZEakQmqbvmWxmUyKZMhlhOv1mExti4NT4fo4VMcXxErIpadx1L185SWPwOIR4VRBlMtFkQk7BKitOjT0t3iiIlMsiFTQIWjUcVf9u+d/ofSQvqYVRNSh999UoSBSIZeuX+GM9M6R7bDdSH9bFMsZEbIj8CbF0VFRZJL6mPelNKF1Xpc3jfnPIYJRn7CDwBEWC0G7YGjlxPNgF+NLGZExxsjpOSQlfI10T9w3ymcfF8lCUWwveIUFixhPtebo3qRL+ufV32ZIWLCL8aVtUSyXRWHJKyxnpnO2tK8xgEAZEuGVqPAqrTFy8Rx8IFI+i95HkxmRWdDz1/tA2xrkS51ck9rWiIPtVGv+OTXHdl9jLnr+amtob/lrWkqMYxLBTU1om0FhYvzc+UzK1yWfz2i0e8T4+Ljw2NsX9PbwsCi0X5/okEURVTsMvYaUl4QHk/C1TVBHKZ8w4RFL5V7SL4sFF8IUzJxOuz39pG7AaZomtEywLX19sHheZkTZMDKLKyERWjlD1/Mk5RMoYbGtaULTtkVYaZvwuuXfQ/kvlk0RNLUZEJomtPKCcDUmgLa4lzcaNaEVo0I1dClGVWMx1ttTL2P3/ItRVYBXrDTq94QeukFm9yVF4UCvg6PNqBiPbjaN6pYciYNyWax4zzf69LzaF/zu+l1ZuhiN7XJ0UBblFW/LKDojzinJBIUJl1g4pz9shiwd7aq3jyW0qV8Xo0IF4V0x+lgxKtR2o03roQwpn24wttfjGXJW+YpRh8DuE8nCgd6mR5siOh4Vm0Z/2AyaBOrL5vhujelL6H9B/l2lS/rlJY/ApBvI+jNHIuUz9W6YNvpb5owwTTvD2Dp5nfI16iIlfI1+m/K1tbke37XQ+iF1sDJ0YsydlW5DGuVLHrTuZYKXKF+P6Z9bf6lxgckjXmbKxpgvipVQSKz02n7GM1GVU+XQtB7m4ExQmDr602bo5I/PzjWt87ohZ8+xva8xZz+vXXEN7T1/KX8/+eQHYZq4wrx79473KwtEoyOntzddHhq7dZcin2WDftxq62W+WXXTzwbZxut6Lko/T3YLvN7BzgCdfJoNjll7dpsbN27oMhbnmD12qwDDvCmu4Fx/xsB3ffT1fcejRfC4etncMhj246vGSeSBfIJ41Ye/sT3TLf9ey38epRwbx7A796CV/kCELY6p7l2X07SC0qgORTm57ddr/qoH15m7ef1M/bpJmBke3PyWvr5vuDmZw+1Wm1srtdwio3e+oa/vO24PDBDJmeC4I5nz6FW/j0ktx+LoHb7p6+O72wMMRHKYei4AlPIbHKsjDJ3ZJUvksofgUNvGZD+qAw6zuTaHehXP2Q1wCRwER84YhV3K1z/1K5thmHlwk2/7+vjm5iQ5txu9y5fI6Q3Eg0b73BggsgXH1T3jVDoX698l/944P/18dgP6G/oCmFHd/bCR1bftu5HPsoWX86aoXuhXlcZfNP/swG5vdRCrawiVdE9zSD69AcdrPLvdqP8bjMWPYW+XamfkD6Br/Q2/objiZP3ZAN/19dH33SMW8XCZKbjJiJ/HnbvqXeZgfXwF8bYtau4hT3sKV+Qa1piL6LqGfOT8JV80n89oNLC6J5gatlHPxQjEcm2T+iWopIlE0vpJTbuKSo3qYVv4YZUaKqruXNUFK1YT7O2dc+7T1o+CwtQv++zvN+QvNO0PXjkB8iRmNnAv/c7+Xxra0R8k/buM/TBGoufCDeP3VYkn8uQTcao+f8u3rVv+Vy2/zYYdGHrzR1v6f6JpGu9Hzl4Er5Ur518hvbhIfeo39v/U0LQ/2X5tY/7eAJEdoJ7g6b1nFAZ/5UD7i/39fTLhUz9ZzufK+n0YlXSEwGIeqJN4eo9nhUF+PdD4a3+f/Uz49I+uCzBbFSjtstcZAEA/dhU4PGwbi3UODwHVfql8WtTJxyPE850DQEU9lWD38lXSiyzWp/jNqPc/t19jm7/HQGQHsGHTG4g/mu2zz5+ahvZ+pAe/3u75XxW7qkKtyskhWgNVNfw/u2C1YmKP86ao66JabcugMYecY2C2Y+tXQJnil7b63/9LQ/vjFT24FHala/3lE8xsuFn6fZ+/NI2jP5L4d8f4YSxx6fVFdaqdt7rOwWeNr8re2aPtw7iONaaDS62hHyF/yVfDZzcaG1Ryb1l+m+vxEx1m9HGpD8Sd+HPmYmv6IL01QtBRZS4wy04dqO8wG5ij6gnjP+OlxmnchF852Hr2kFnjcwT13DQ3+24zuwM4Q7zyVJkLRMgZByVq6VG+a4RTIb08TyCySg3AbKVfVbFSo37W5ynPYdjvoxqfZDJexdd8zdhD/lctv3mEF0EL65NjxEvGDLAT405fH09WP8GMcOX86+wuL/P8aUwvP2ZsTid2KtQOgVqdGmB3qobTeo2N9d3ORM7nyvp9GPn4HMvzWUqNfmR3ojbObWysc4kSYBsJM25+y5NRo49SI/6wj74nq9SBYf84lvVJAqtG6GqAyXULwalLuLG3Gza1NLOTc8TP/D5rJ93LV99dZvn5U2LG+DTbnDjtUKkdAmZGXgSxrE8yFm9873KH2J1W+S6me/5X5dZIEEd1jsDsDvoQnSUwV8UT9p+z+9GBO8wrxxbPHhpjnDq56Zv03Z5lpy3a4aFe2tpqnLW2+72yMRfvmEOmaJ6TuABn6BWe6hyBSK7Zv9Kj353S70PpWn+VNMvzASJG/zVb+1FVa3PsX5kuc7DNO8HQ8VumDf2orTId2epIpO2HWW2V+KUa6DrWmKusodeRv+SrpXO/+uOKcQjBcIA/JY7/RfzPprZrk0u41PbroMgYaR1kQkIFgckkQBHjqTb/koOMCDlMAizCAsLkCInMgSY0LSOCPaV/IDJhl1BAmCx6+kPRTcORXxPaUUE/HNAW7l1q+GbpfkKKggCLUCx0hPcqmyJoQWAJis3OsAvzv6j8vcqBSIUcwgQCi0WASThCGb38R0nh7Ww3Q4ZW2trgTGmrf0UxDgsgFMU42NL0szsvf903rZWnQ7gc7dcusVA2/O8URYBJKIrppP6aJgpLXj1viyJMIBSHw9DltJ/YaZ/Gi/TrLO/lpbzQOiBySho+W4Ul4W30LxMCxSEchtP+ub64nVJYET5VT8MCAnVcJNt8HBt11Nm/OvVzuBwnrlt+cAWxNKS3gQmEyRXVfQzLC8Yhi3bpqPcu5StGVYFF7z8mRW/Dzj5+kAoJh6lVvkZ4T/p3yf9UXbZJT+kb85fDdIX+c5ARYZdevxaTflgjutkaf9svVQEIiwWByaL3VRDf/N9uGbo0xgYCk6KXs1k+3ZewMYZMIJShqNg06rfw0n6iTE1RQoYftiaOCgtGHTb084qlHg/69JL+hfWX8ullQh/jFi6XfyZo1Eu7uBZO+mN2mYMPNqNiSGmsTybhUO0n55Htl/r6ZehvacyLlpDIdK5TTWkcxuy2xnR73tDxg9bQXvKX8neWz/LJHYnka6EUu80Pzx3nf/5GIvnbccGnbiQfRrfPaEkkXwlfzPa0RPJlUCOfztLYed7bLYHq5gzPJolEIpFI/lFIo1EiaWdnkbFHD3gQWGRx+i5P3prxRf3XehBCIvliqaSJBObYArbmAkTSvXmZS86nko4QmNsCtpgLRJBVKvmakdvTEkkHtXyabKkOmOl3D+K0dT9zK5H8LajtkM7uNg8MmdVBhm91fnNGchlqO+m2/yFvRh0cRlap5GtFGo0SiUQikUgkkq7I7WmJRCKRSCQSSVek0SiRSCQSiUQi6Yo0GiUSiUQikUgkXZFGo0QikUgkEomkK9JolEgkEolEIpF0RRqNEolEIpFIJJKuSKNRIpFIJBKJRNIVaTRKJBKJRCKRSLoijUaJRCKRSCQSSVek0SiRSCQSiUQi6Yo0GiUSiUQikUgkXZFGo0QikUgkEomkK9JolEgkEolEIpF0RRqNEolEIpFIJJKu/CdN00TnTcnnpZJfJVcC+t08dto6g9uos5NNs1vrJe7V6V2vtrhWleHBW5g7I1wnlTyrumK4Hzu5SLNPpld9h2x6lxpW1OFBbl2UUVP/HuJ+CJfRpRkX+t2P6dLMV+MS7fbR60gikUgkXbm00dhcdE9gpn/QCdkcraDTk/upZ61O/q/WPP/fzvSsToYH+40Fvc0w0gNxDqscptvzOocT6UAtv0o8vka+BtjcTIT8WDYibNhfMeE2U9/Jkm5ldAE9LHJtnCp3lwU5PXqbjakMIdWKzXrx6livVaitP+P71SDaz8OdwQAny2VWGRy+hdUI69TtWvXanefBU4XU71P0d0ag3RBocLJeT+h2kZGXHuX2xhSZkIrVZj07jkFPelEhv9qtf3XpA6UYt5/byCwMddWJeo1KbZf5B09RUr8zdbZSOpUsscgcGyiY6iojr/wcR+ZQfn7NYGfcBpfRhTq1So31Z9+zGtQ4p0ud0XZnc1F/uky7XaqOJBKJRPJRuPT2tNXuxu0+Ztnnw+fz8dNuP263E7vZit3txrb1Ez6fD5/vAY7b0+TqHc+qe8z5nrNuduJ22lCMe/NGes82rLidtrYFxEy/08nxso+ny4eobic2I7CaeGbkNc9WKxuqG3M88/nwTa9RMe7txO7wr4E58L/h3bs3vB5XWLz3LY6xeRZzeqzs3AN8vjFmEnscn5V+dYO5Zz58vgCJ7utlE5vzMY/VXX7y+fAtw/DjCxZSA0WxdTXMAMxWGzaLqfP2Ccy3Bnn8GBI+H75HA0yutgxjm3MYt3mNZ883sA4OX69eitJ5+yQ2J4+HzayN+fA936B/+KQRZlPdVN/6mNmy4nafYzA2UBRs3QyPXvXChnN4sNmXl4+Hefz4MY8fDzPodtJfXeapb5Zc52OdmCw96YTZis2m0E0rKnHufz+H9fUvvH/3jp9/noDIbcaSFdqG2dn0qgtmrDYbXboU5GbxPV8D1Y3b7cZZfYvP5+Nt1Ynb7catwtpzH5GNLpr12G4915FEIpFIPhqXNhrNVhs2m4XGmmIyW7DZbFjN+mKjKMDQOD4LsDfPvbux5hsbs9WG7ZaKHQuq2o/NajbuTfEiqKdYXUyw12GUmK17ZLMq4Zd+btmsmLHhfPyYIXfjfZkdz+PHxsL+mInXv/F70oepkGcXoJ7gp+cFGH/BlNOsL4y3HvNue4Wh9ozqoIZ/4z9+nmLkrPQnXvPb7ysMcdz+VG+YjTKZzN0XyI+CGdQgQc8xybFJWnajGdvwCB7XEIM9GIPXjnmY8JQd9tZOG+LmGnuVIK9fDTZ/KHwyzFa9LwMmSyNzM1ZbP86JFd54d9nr1Pcjk5+PsOEL4m90S6w8fvcG78lon4TS3i6+hXc8vmXDZrPRb7cAYLH3Y7PZsN16zLsFH5VK42ebRCKRSL52Lm009oQyws+bURwAhecMBNJd34QMhqawAxy/ZS5xMnYlPsNbZxj/rRO3z6BCenaSxA5YH/sZYZe9ClCp6MbjWoJ0e9LWEUK+hj1XYncXXEPOtghnYPUw4tklv9sZ8DWgEn6/wtBxEt9Ygl424j8Ft4IhVPaIL+dPBuwsk3aPnL/t+smpkM9XADMer/WT94FKpQpbW5yoJbOXkRO/fD4N9bqKW+2824HqxlY97LwrkUgkkq+Uj2M0Atya4teUDwtwuPyIu7Eur2VuhXjh0f9cm4mx0wzYYX5mA29o5Hz/sSZ7rM+/Jb0HMMybg1/w24B+Jx4TcLjMo2+/4eb9UaZjCbI7dYZ/1vhtoh+wMfQ6Q9jdmWYnNoZeJ5kybMud+BNu37jDdPs+/LVRIxubJBAIEAgEmE1XIB9vXgdms5c3/KwjrKwMwfoYY4lLP21wzXr1jxByQTW2SLbtdnY+zXDocibjTqKlVyCeh0qa2cb1ZKKtX30AlTUmZ3WTzeb/lXfn+ft1spNgsqFDIE6eCunZxrX+I6cXBkd8mPbmuH93msXsDrU6gJmRX36mV1WuS5f+iTdMdPMr7J9gJdzNstT5qO0mkUgkkmvh4xmNgHX4ZzajDgAKzwcInHjN14kN/4ugvu29O8N8w2EsO8+i+SUvH1+0P7nM2I0b3PjmHvPV1l2zteErNcirX4L6m0yO2dtIMv98jAeOb+m7u2hsn5u5NdjbqUybs+GTmGd5Zo3daoH5mbXLGUo9YWVw6g2vvXXWlnexOm3gdGLbyKNOveHdj4PNAy2XwTqygm43PiH+QbuH162XDe+EB47fsphu3MuSyA0z3vXt8klujbzhTVglv5zAbHeCbZD+6hp17yvevBnhkskBUIjPMjsb4O7NZyd8Z3vm1ghv3oRR88skzHac2Bjsr7JW9/LqzRtGelTKPPyGX6NDmLfmefbAwb++7eObO6M9G3pwjbo0x9ZFmLH26PLwMdpNIpFIJNfLRzUaAW5N/UrKZwEOWX50lwtfOA6GmNL3qHk7l6BOhfjMW5xhf5dFY5yV/X3295c6fBRrxtsYsA6+4Y+jApmVKKEhB0rDKXPrGQPTXY80nIOT8MoCofEwyaWRSxpKvWN9/DO/BHd59nCW1dkIlYVf+dHZ22J8NlZGVpL4TBs8HYs3DwtdluvUyzYygRdIvk1QB+qJeXYnQl3a/WzMt37klyU3b5+MEo9PEh/a5OfH7YerLofD/yM//viO334LGz88PgDzLX78ZQn32yeMxuNMxofY/PnxJX01rbinfmH/6IDidoqF8BD9hSRj9wIn3S66cS26XD/X3W4SiUQiuV4+utEIVoZ/3kR/4Vjg+cAY651Rmtwi1NqjJpaYZ2bDS2ik+8Y06P6G3iGFxsuN0uJ9bkZy+rfnsiXq5lsMjkzx+pf/YP8vjYOksX2+3u3zKudjdU/w+t0rHveo4ofifrPJy+Of8K2P8Hr4GsxT62PerPgwbTzlYezDnfOuTS/zCEEfsLZIolJnLV7D7/3wSrX535McWuPptJUXUx9iep6Bc4QXww2d0oyOrnZE6ILNz/vkEGtPp7G+mLq0QVzJ53UD32yl3znMxKtf+L3wEvVwmXjzDW2PXFGXj8VHaTeJRCKRXAufwGgEuMXUryn9RPXhIRe5xtv8L9APUu/y09gc5pcvuXBn+gT9TPyyz+tBgArriQJOpx0q6zx7MHPCXw7A+vhHJhRoHgX/EGp50qu5D35b1zM762yo43jz00ymr2cj3Pr4De99FgrPn5PsDOyVa9RreCKIiQ0W5yIsmifo9bfCmdRyrB2OMG6fZzJ2mf3bi3Di9xvOrPkN9vq7OfV1UiO3dsjIuJ35yXa/3d7Iz44R73zolpdxFaqHl+2BV9Plo/FR2k0ikUgk18EnMhoB63DrRPWFDBLS96gBD+HuR6bPoE4p/ozIlgWn2rA8lolEcif9Dmt58lVQR4bO+chzN0rE7g3wyHeP75+sdj0h/sHU0ow+qxN9/46llSHWH93netZTK8NvVnRj/kO4br0GJ5hSYGt+HiU4coVtyR1iT+J4V97xbiUKz+8xekWD9iQ1VmdjWJ29HfJosBN7Qty7wrt3K0R5zr3R9CX9YHd523nCvF5ga9fFyNDlLOyr6/Ix+NjtJpFIJJKrcGmjMTt9gxs3xppvpgqRe9y4cZPpbJbpGze4F9mF5SfGvY6Hb03xa2ochYu/VXgr9AIPgDd0ztumtrygdRCmId98yw9P1zjEibPphOZCrUQYuHGT+6MBAoGH3Lk5TWU8SebHdsO0xOJDPZ3T6XeWyYbq0l9Vuoac55apkl9lcS6ub4FvvSWWWCXf04uhCunIQ+7ceERy75BjwGpzYzcVeH7vLtOLxnZlF+o7CSIPn5Hcfc6jhxHS7Q9Zh3mzom/T98716HUaJ+N+O5iCTPR8HLidOvl4gPs3HDzPHXNcB6wqTvshyUcDPImtstOTZV8hv7rIXFx3WtiKL7K6usrq6iqLkQAPb/8LX9KKUz2vxU9Sz8cJ3L+B43mOY10pVKedw+QjBp7EWO1NKZ3sNPcDi2R3KlRKWWIPp6lEl5g4c5yc5lp1Qf9vQ6uJGIEZ3elkfSZALLFK9lLpXFe7SSQSieRjcul/I/ipqNdq0NMJzV6ooyenp1avVajVzd3/ddlnIj16m91Xl/hXaelR+uL+c/+N4HVxab1KMW4/4oJ/13cGtR2yFRuDty7hH5ke5fbuK37vVbEP0euylGLcjqj83nOblIjpSp1bv5V8DpxubPUalVKe3J4Vp1ulv9sJ5UvrAunRPuL+C/6N4HVw2XbroY4kEolE8vG49JvGT0Vvn/TolZOf/tD/q811pi+5Nqy3Lmcw/oOwOd36t0rNVmy3Bnk87OxuMEokEolEck18sUajRCKRSCQSieTLQRqNXyBmW523Y3e5O9vt+5EVEoG73I0UUD7BR/Z61wtys3e5O/aWuv3j64XZRv3tGHfvztJNs0+nlxl7IcLduwES3Rw8c7PcvTvG27r9I739voQulQSBu3eJFJSP/93GS7Tbx68jiUQikXTji/VplEgkEolEIpF8Ocg3jRKJRCKRSCSSrkijUSKRSCQSiUTSFWk0SiQSiUQikUi6Io1GiUQikUgkEklX/v/UlPBhW9laSQAAAABJRU5ErkJggg==;" vertex="1" parent="1">
          <mxGeometry x="860" y="190" width="653" height="337" as="geometry" />
        </mxCell>
        <mxCell id="juETD-w41gNVE5XSFF6s-17" value="El email ya se encuentra en uso." style="strokeWidth=1;shadow=0;dashed=0;align=center;html=1;shape=mxgraph.mockup.containers.rrect;rSize=0;strokeColor=#666666;fontColor=#666666;fontSize=17;verticalAlign=top;whiteSpace=wrap;fillColor=#ffffff;spacingTop=32;" vertex="1" parent="1">
          <mxGeometry x="577" y="220" width="250" height="140" as="geometry" />
        </mxCell>
        <mxCell id="juETD-w41gNVE5XSFF6s-18" value="Response" style="strokeWidth=1;shadow=0;dashed=0;align=center;html=1;shape=mxgraph.mockup.containers.rrect;rSize=0;fontSize=17;fontColor=#666666;strokeColor=#666666;align=left;spacingLeft=8;fillColor=none;resizeWidth=1;whiteSpace=wrap;" vertex="1" parent="juETD-w41gNVE5XSFF6s-17">
          <mxGeometry width="250" height="30" relative="1" as="geometry">
            <mxPoint y="-30" as="offset" />
          </mxGeometry>
        </mxCell>
        <mxCell id="juETD-w41gNVE5XSFF6s-19" value="" style="shape=ellipse;strokeColor=#008cff;resizable=0;fillColor=none;html=1;" vertex="1" parent="juETD-w41gNVE5XSFF6s-18">
          <mxGeometry x="1" y="0.5" width="20" height="20" relative="1" as="geometry">
            <mxPoint x="-25" y="-10" as="offset" />
          </mxGeometry>
        </mxCell>
        <mxCell id="juETD-w41gNVE5XSFF6s-21" value="OK" style="strokeWidth=1;shadow=0;dashed=0;align=center;html=1;shape=mxgraph.mockup.containers.rrect;rSize=0;fontSize=16;fontColor=#666666;strokeColor=#c4c4c4;whiteSpace=wrap;fillColor=none;" vertex="1" parent="juETD-w41gNVE5XSFF6s-17">
          <mxGeometry x="0.75" y="1" width="90" height="25" relative="1" as="geometry">
            <mxPoint x="-107" y="-33" as="offset" />
          </mxGeometry>
        </mxCell>
        <mxCell id="juETD-w41gNVE5XSFF6s-22" value="API/Usuario" style="swimlane;fontStyle=0;childLayout=stackLayout;horizontal=1;startSize=30;horizontalStack=0;resizeParent=1;resizeParentMax=0;resizeLast=0;collapsible=1;marginBottom=0;whiteSpace=wrap;html=1;" vertex="1" parent="1">
          <mxGeometry x="140" y="700" width="140" height="120" as="geometry" />
        </mxCell>
        <mxCell id="juETD-w41gNVE5XSFF6s-23" value="email: string" style="text;strokeColor=none;fillColor=none;align=left;verticalAlign=middle;spacingLeft=4;spacingRight=4;overflow=hidden;points=[[0,0.5],[1,0.5]];portConstraint=eastwest;rotatable=0;whiteSpace=wrap;html=1;" vertex="1" parent="juETD-w41gNVE5XSFF6s-22">
          <mxGeometry y="30" width="140" height="30" as="geometry" />
        </mxCell>
        <mxCell id="juETD-w41gNVE5XSFF6s-24" value="pass: string" style="text;strokeColor=none;fillColor=none;align=left;verticalAlign=middle;spacingLeft=4;spacingRight=4;overflow=hidden;points=[[0,0.5],[1,0.5]];portConstraint=eastwest;rotatable=0;whiteSpace=wrap;html=1;" vertex="1" parent="juETD-w41gNVE5XSFF6s-22">
          <mxGeometry y="60" width="140" height="30" as="geometry" />
        </mxCell>
        <mxCell id="juETD-w41gNVE5XSFF6s-25" value="Registrar(email.pass): Response" style="text;strokeColor=none;fillColor=none;align=left;verticalAlign=middle;spacingLeft=4;spacingRight=4;overflow=hidden;points=[[0,0.5],[1,0.5]];portConstraint=eastwest;rotatable=0;whiteSpace=wrap;html=1;" vertex="1" parent="juETD-w41gNVE5XSFF6s-22">
          <mxGeometry y="90" width="140" height="30" as="geometry" />
        </mxCell>
        <mxCell id="juETD-w41gNVE5XSFF6s-26" style="edgeStyle=orthogonalEdgeStyle;rounded=0;orthogonalLoop=1;jettySize=auto;html=1;entryX=0.5;entryY=0;entryDx=0;entryDy=0;" edge="1" parent="1" source="juETD-w41gNVE5XSFF6s-11" target="juETD-w41gNVE5XSFF6s-22">
          <mxGeometry relative="1" as="geometry" />
        </mxCell>
        <mxCell id="juETD-w41gNVE5XSFF6s-27" style="edgeStyle=orthogonalEdgeStyle;rounded=0;orthogonalLoop=1;jettySize=auto;html=1;entryX=0.503;entryY=0.982;entryDx=0;entryDy=0;entryPerimeter=0;" edge="1" parent="1" source="juETD-w41gNVE5XSFF6s-11" target="juETD-w41gNVE5XSFF6s-17">
          <mxGeometry relative="1" as="geometry" />
        </mxCell>
        <mxCell id="juETD-w41gNVE5XSFF6s-28" value="La contraseÃ±a no cumple los requisitos." style="strokeWidth=1;shadow=0;dashed=0;align=center;html=1;shape=mxgraph.mockup.containers.rrect;rSize=0;strokeColor=#666666;fontColor=#666666;fontSize=17;verticalAlign=top;whiteSpace=wrap;fillColor=#ffffff;spacingTop=32;" vertex="1" parent="1">
          <mxGeometry x="577" y="550" width="250" height="140" as="geometry" />
        </mxCell>
        <mxCell id="juETD-w41gNVE5XSFF6s-29" value="Response" style="strokeWidth=1;shadow=0;dashed=0;align=center;html=1;shape=mxgraph.mockup.containers.rrect;rSize=0;fontSize=17;fontColor=#666666;strokeColor=#666666;align=left;spacingLeft=8;fillColor=none;resizeWidth=1;whiteSpace=wrap;" vertex="1" parent="juETD-w41gNVE5XSFF6s-28">
          <mxGeometry width="250" height="30" relative="1" as="geometry">
            <mxPoint y="-30" as="offset" />
          </mxGeometry>
        </mxCell>
        <mxCell id="juETD-w41gNVE5XSFF6s-30" value="" style="shape=ellipse;strokeColor=#008cff;resizable=0;fillColor=none;html=1;" vertex="1" parent="juETD-w41gNVE5XSFF6s-29">
          <mxGeometry x="1" y="0.5" width="20" height="20" relative="1" as="geometry">
            <mxPoint x="-25" y="-10" as="offset" />
          </mxGeometry>
        </mxCell>
        <mxCell id="juETD-w41gNVE5XSFF6s-31" value="OK" style="strokeWidth=1;shadow=0;dashed=0;align=center;html=1;shape=mxgraph.mockup.containers.rrect;rSize=0;fontSize=16;fontColor=#666666;strokeColor=#c4c4c4;whiteSpace=wrap;fillColor=none;" vertex="1" parent="juETD-w41gNVE5XSFF6s-28">
          <mxGeometry x="0.75" y="1" width="90" height="25" relative="1" as="geometry">
            <mxPoint x="-107" y="-33" as="offset" />
          </mxGeometry>
        </mxCell>
        <mxCell id="juETD-w41gNVE5XSFF6s-32" style="edgeStyle=orthogonalEdgeStyle;rounded=0;orthogonalLoop=1;jettySize=auto;html=1;entryX=0.452;entryY=0.042;entryDx=0;entryDy=0;entryPerimeter=0;" edge="1" parent="1" source="juETD-w41gNVE5XSFF6s-11" target="juETD-w41gNVE5XSFF6s-29">
          <mxGeometry relative="1" as="geometry" />
        </mxCell>
        <mxCell id="juETD-w41gNVE5XSFF6s-33" value="Escenario 1" style="text;html=1;align=center;verticalAlign=middle;whiteSpace=wrap;rounded=0;" vertex="1" parent="1">
          <mxGeometry x="80" y="650" width="60" height="30" as="geometry" />
        </mxCell>
        <mxCell id="juETD-w41gNVE5XSFF6s-34" value="Escenario 3" style="text;html=1;align=center;verticalAlign=middle;whiteSpace=wrap;rounded=0;" vertex="1" parent="1">
          <mxGeometry x="730" y="490" width="60" height="30" as="geometry" />
        </mxCell>
        <mxCell id="juETD-w41gNVE5XSFF6s-36" value="Escenario 2" style="text;html=1;align=center;verticalAlign=middle;whiteSpace=wrap;rounded=0;" vertex="1" parent="1">
          <mxGeometry x="730" y="150" width="60" height="30" as="geometry" />
        </mxCell>
        <mxCell id="juETD-w41gNVE5XSFF6s-37" value="UX/UI&lt;div&gt;Wireframe&lt;/div&gt;" style="text;html=1;align=center;verticalAlign=middle;whiteSpace=wrap;rounded=0;" vertex="1" parent="1">
          <mxGeometry x="210" y="120" width="60" height="30" as="geometry" />
        </mxCell>
      </root>
    </mxGraphModel>
  </diagram>
</mxfile>
